<svg width="138" height="49" viewBox="0 0 138 49" fill="none" xmlns="http://www.w3.org/2000/svg">
<path d="M15.7584 18.7323C15.8237 18.6639 15.8896 18.5963 15.9577 18.5306C16.5828 17.7526 17.3001 17.052 18.0941 16.4464C16.4049 14.8652 14.4219 14.429 14.4219 14.429C15.2861 14.8979 15.6303 16.8714 15.7584 18.7323Z" fill="#EC1C26"/>
<path d="M35.0637 18.531C35.1317 18.5966 35.1973 18.664 35.2624 18.7323C35.3904 16.8714 35.7346 14.8979 36.5988 14.4289C36.5988 14.4289 34.616 14.865 32.9268 16.4462C33.721 17.052 34.4384 17.7527 35.0637 18.531Z" fill="#EC1C26"/>
<path d="M25.5105 18.9591C26.7579 17.5213 28.5765 16.6797 30.4922 16.6797C30.9183 16.6797 31.3337 16.7237 31.7374 16.8013C29.9519 15.6136 27.8111 14.9194 25.5105 14.9194C23.2099 14.9194 21.0691 15.6136 19.2836 16.8013C19.6874 16.7237 20.1028 16.6797 20.5288 16.6797C22.4443 16.6797 24.2627 17.5214 25.5105 18.9591Z" fill="#EC1C26"/>
<path d="M32.3326 29.6066C31.7477 29.7769 31.1314 29.873 30.4923 29.873C29.2322 29.873 28.0178 29.5027 26.9766 28.8442L25.5104 31.3836L24.0443 28.8442C23.003 29.5028 21.7887 29.873 20.5287 29.873C19.8897 29.873 19.2733 29.7769 18.6883 29.6066C19.4064 31.2239 20.237 34.223 18.6037 37.4186C20.0361 39.1382 21.5869 40.5009 22.8782 41.4882L23.2859 35.2174L23.7344 42.1185C24.2709 42.4973 24.7307 42.7946 25.0736 43.0052L25.5104 36.2847L25.9458 42.9808C26.2911 42.756 26.7529 42.4416 27.2913 42.0439L27.735 35.2174L28.1367 41.3959C29.4117 40.3839 30.939 39.007 32.3558 37.3029C30.8005 34.1506 31.6231 31.2045 32.3326 29.6066Z" fill="#EC1C26"/>
<path d="M14.2994 25.4286C14.2858 25.467 14.2711 25.5059 14.258 25.5443C14.0537 26.1374 13.899 26.7136 13.7841 27.2738C13.6454 27.9501 13.5656 28.6022 13.5378 29.2275C13.3283 33.9424 15.9723 37.1649 16.9672 38.2034C17.1382 37.9716 17.2886 37.7403 17.4282 37.5096C17.5173 37.3626 17.6004 37.2159 17.6773 37.0697C17.7668 36.8999 17.8497 36.7307 17.9238 36.5622C19.5628 32.8417 17.606 29.5288 17.2685 29.0037C15.891 28.2165 14.8264 26.9485 14.2994 25.4286Z" fill="#EC1C26"/>
<path d="M37.4944 29.1066C37.4583 28.5074 37.3743 27.8833 37.2365 27.2362C37.1194 26.686 36.9652 26.1201 36.7625 25.5368C36.7498 25.5003 36.7351 25.4631 36.722 25.4264C36.1953 26.9481 35.1297 28.2172 33.7507 29.0048C33.3949 29.5464 31.4641 32.7588 33.0367 36.4443C33.1098 36.6152 33.1905 36.7872 33.279 36.9599C33.3625 37.1227 33.4545 37.2861 33.5526 37.4501C33.7034 37.7018 33.8686 37.9548 34.0566 38.2084C35.0802 37.1654 37.7847 33.9261 37.4944 29.1066Z" fill="#EC1C26"/>
<path d="M20.5287 19.3707C22.6859 19.3707 24.4347 21.1193 24.4347 23.2763C24.4347 25.4334 22.6859 27.1819 20.5287 27.1819C18.3715 27.1819 16.6226 25.4334 16.6226 23.2763C16.6226 21.1193 18.3715 19.3707 20.5287 19.3707ZM30.4921 19.3707C32.6493 19.3707 34.3981 21.1193 34.3981 23.2763C34.3981 25.4334 32.6493 27.1819 30.4921 27.1819C28.3349 27.1819 26.5861 25.4334 26.5861 23.2763C26.5861 21.1193 28.3349 19.3707 30.4921 19.3707ZM15.8213 20.2228C15.4914 20.7293 15.2443 21.2924 15.0912 21.8935C14.9784 22.3368 14.9119 22.7983 14.9119 23.2763C14.9119 23.4248 14.9228 23.5705 14.9342 23.716C14.9676 24.1442 15.0447 24.5603 15.1692 24.9564C15.4894 25.9751 16.0947 26.8672 16.8883 27.5449C17.2136 27.8225 17.5703 28.0629 17.9531 28.2614C18.7255 28.6621 19.6001 28.8922 20.5287 28.8922C22.343 28.8922 24.0559 28.0042 25.1105 26.5169L25.5105 25.9525L25.9104 26.5169C26.9648 28.0042 28.6776 28.8922 30.4922 28.8922C31.4208 28.8922 32.2955 28.662 33.068 28.2613C33.4508 28.0626 33.8076 27.8223 34.1327 27.5445C34.926 26.8669 35.531 25.9754 35.8511 24.9571C35.9758 24.5608 36.0529 24.1445 36.0863 23.716C36.0978 23.5705 36.1086 23.4248 36.1086 23.2763C36.1086 22.7975 36.042 22.3351 35.9287 21.891C35.7755 21.291 35.5288 20.7289 35.1996 20.2231C34.9548 19.8472 34.6659 19.504 34.3409 19.1973C33.6341 18.5301 32.7563 18.0453 31.7793 17.815C31.3653 17.7174 30.9356 17.6603 30.4922 17.6603C28.6776 17.6603 26.9648 18.5483 25.9104 20.0357L25.5105 20.5999L25.1105 20.0357C24.0559 18.5483 22.343 17.6603 20.5287 17.6603C20.0853 17.6603 19.6556 17.7174 19.2415 17.815C18.2649 18.0453 17.3875 18.5297 16.6808 19.1964C16.3554 19.5032 16.0662 19.8466 15.8213 20.2228Z" fill="#EC1C26"/>
<path d="M30.4912 23.7181C30.2466 23.7181 30.0496 23.5211 30.0496 23.2765C30.0496 23.0319 30.2466 22.8325 30.4912 22.8325C30.7358 22.8325 30.9351 23.0319 30.9351 23.2765C30.9351 23.5211 30.7358 23.7181 30.4912 23.7181ZM30.4912 20.835C29.1527 20.835 28.0497 21.9356 28.0497 23.2765C28.0497 24.624 29.1436 25.7179 30.4912 25.7179C31.8319 25.7179 32.935 24.615 32.935 23.2765C32.935 21.9356 31.8319 20.835 30.4912 20.835Z" fill="#3572C1"/>
<path d="M20.5276 23.7181C20.283 23.7181 20.086 23.5211 20.086 23.2765C20.086 23.0319 20.283 22.8325 20.5276 22.8325C20.7722 22.8325 20.9716 23.0319 20.9716 23.2765C20.9716 23.5211 20.7722 23.7181 20.5276 23.7181ZM20.5276 20.835C19.1891 20.835 18.0862 21.9356 18.0862 23.2765C18.0862 24.624 19.1801 25.7179 20.5276 25.7179C21.8683 25.7179 22.9714 24.615 22.9714 23.2765C22.9714 21.9356 21.8683 20.835 20.5276 20.835Z" fill="#3572C1"/>
<path d="M32.4925 13.7092C32.5673 13.6568 32.6579 13.6106 32.6435 13.4993C32.618 13.3015 32.3438 13.2597 32.1752 13.2363C32.1566 12.6273 32.0422 12.0341 32.0731 11.4113C33.0268 11.1397 33.9963 10.9513 34.9633 10.7371C31.9369 9.0117 28.5154 7.64268 25.2474 6.43428C21.9575 7.7089 18.656 8.95493 15.3769 10.2575C17.2142 10.8758 19.0476 11.5058 20.8797 12.1394C20.7855 13.2088 20.6614 14.27 20.4754 15.3276C23.4697 13.7668 27.0273 13.6319 30.0199 15.2801C29.8305 14.2882 29.6491 13.2908 29.5081 12.2908C30.2645 12.0155 31.0158 11.7062 31.792 11.4913C31.7953 12.0971 31.9748 12.6502 32.0221 13.233C31.8507 13.2226 31.6285 13.2592 31.6141 13.4613C31.6059 13.5791 31.7056 13.6236 31.7793 13.6839C31.404 14.3154 31.3382 15.0742 31.2747 15.7929C31.342 15.4086 31.4108 15.0246 31.4829 14.6413C31.4397 15.0747 31.3912 15.5074 31.3421 15.9402C31.4174 15.5194 31.493 15.0987 31.5743 14.6789C31.5279 15.1208 31.4762 15.562 31.4245 16.0033C31.5007 15.5613 31.5769 15.1193 31.6583 14.6782C31.6151 15.1275 31.5653 15.5759 31.5155 16.0246C31.5929 15.5754 31.6702 15.1262 31.7528 14.6779C31.7093 15.1317 31.6587 15.5854 31.6085 16.0378C31.6853 15.5949 31.765 15.1247 31.8448 14.7001C31.8193 14.9991 31.727 15.8193 31.7067 16.0023C31.6864 16.1855 31.7022 16.0487 31.7022 16.0484C31.7687 15.6261 31.8422 15.1417 31.9125 14.6956C31.8816 15.1524 31.8374 15.61 31.7951 16.0668C31.7957 16.0668 31.7962 16.0668 31.7966 16.0668C31.8589 15.6142 31.9214 15.1615 31.9816 14.7087C31.9615 15.1632 31.9246 15.6161 31.8899 16.0698C31.8905 16.0696 31.8909 16.0703 31.8914 16.0695C31.9436 15.6232 31.998 15.15 32.0428 14.7202C32.0455 15.0171 31.9978 15.8301 31.9878 16.0121C31.9779 16.194 31.9857 16.0576 31.9857 16.0576C32.0259 15.6408 32.0716 15.1361 32.1016 14.7121C32.1232 15.0101 32.1049 15.8316 32.1016 16.0153C32.0983 16.1987 32.1009 16.0614 32.1009 16.0614C32.1305 15.6408 32.1634 15.1587 32.1768 14.7132C32.2048 15.1675 32.1983 15.6239 32.1967 16.0798C32.1975 16.0798 32.1983 16.0798 32.199 16.0799C32.2161 15.6242 32.2365 15.1691 32.2309 14.7132C32.2765 15.1685 32.2815 15.6256 32.2922 16.0829C32.2926 16.0829 32.2931 16.0829 32.2936 16.0829C32.3009 15.6272 32.3159 15.1706 32.2926 14.7151C32.3576 15.1684 32.3665 15.629 32.3869 16.0859C32.3874 16.0858 32.388 16.0865 32.3884 16.0857C32.3888 15.6321 32.3971 15.1484 32.3626 14.7135C32.4312 15.0087 32.468 15.8428 32.4792 16.0274C32.4906 16.2118 32.4828 16.074 32.4828 16.0738C32.4763 15.6449 32.4773 15.1478 32.4291 14.6969C32.5188 15.1446 32.5411 15.6141 32.5772 16.0695C32.5687 15.6098 32.5712 15.1422 32.5226 14.6846C32.6123 15.1335 32.6351 15.6061 32.6712 16.062C32.6628 15.6049 32.6656 15.1372 32.6175 14.6826C32.7059 15.125 32.7282 15.597 32.7638 16.0468C32.7527 15.5919 32.7333 15.135 32.7015 14.6811C32.7645 15.1146 32.8077 15.5533 32.8518 15.9892C32.8365 15.5405 32.8185 15.0912 32.7931 14.643C32.8478 15.0675 32.888 15.4944 32.9348 15.9198C32.9179 15.1544 32.9097 14.3761 32.4925 13.7092Z" fill="#3572C1"/>
<path d="M57.0994 39.0098H55.8021V38.8782C55.8403 38.8748 55.887 38.8692 55.9421 38.8613C55.9984 38.8534 56.0366 38.845 56.0568 38.836C56.0985 38.8191 56.1283 38.7961 56.1463 38.7668C56.1642 38.7376 56.1732 38.7005 56.1732 38.6555V36.8674L55.35 38.971H55.1374C55.1273 38.9338 55.102 38.8602 55.0615 38.75C55.0221 38.6398 54.9901 38.5515 54.9653 38.4851L54.3597 36.8404V38.2962C54.3597 38.4356 54.3687 38.5419 54.3867 38.615C54.4058 38.687 54.4361 38.7398 54.4778 38.7736C54.5059 38.7972 54.5559 38.8197 54.6279 38.8411C54.701 38.8624 54.7522 38.8748 54.7814 38.8782V39.0098H53.7523V38.8782C53.7804 38.8748 53.826 38.8675 53.889 38.8562C53.9531 38.8439 54.0054 38.8231 54.0459 38.7938C54.0909 38.7623 54.1212 38.7095 54.137 38.6353C54.1527 38.5599 54.1606 38.4531 54.1606 38.3148V37.1289C54.1606 37.0569 54.1516 36.9973 54.1336 36.95C54.1156 36.9017 54.0886 36.8635 54.0526 36.8353C54.0076 36.8005 53.9615 36.778 53.9143 36.7679C53.867 36.7577 53.8192 36.751 53.7709 36.7476V36.616H54.8725L55.463 38.1967L55.9607 36.9129C55.9775 36.8657 55.9939 36.8095 56.0096 36.7442C56.0253 36.679 56.0338 36.6363 56.0349 36.616H57.0961V36.7476C57.0601 36.7499 57.0224 36.7544 56.983 36.7611C56.9437 36.7679 56.906 36.7769 56.87 36.7881C56.8261 36.8027 56.7969 36.8258 56.7823 36.8573C56.7688 36.8888 56.762 36.9236 56.762 36.9619V38.6572C56.762 38.6977 56.7688 38.732 56.7823 38.7601C56.7969 38.7871 56.8261 38.8107 56.87 38.8309C56.8925 38.8411 56.929 38.8506 56.9797 38.8596C57.0314 38.8686 57.0713 38.8748 57.0994 38.8782V39.0098Z" fill="#656565"/>
<path d="M59.021 38.3164C59.021 38.1432 58.9732 38.0111 58.8776 37.92C58.782 37.8278 58.6408 37.7817 58.4541 37.7817C58.4317 37.7817 58.4024 37.7828 58.3664 37.7851C58.3304 37.7862 58.3068 37.7873 58.2956 37.7884V38.7061C58.3057 38.75 58.3366 38.786 58.3884 38.8141C58.4401 38.8411 58.5031 38.8546 58.5773 38.8546C58.7123 38.8546 58.8197 38.8068 58.8995 38.7112C58.9805 38.6156 59.021 38.484 59.021 38.3164ZM59.6874 38.2928C59.6874 38.412 59.6615 38.5177 59.6098 38.61C59.558 38.7022 59.4872 38.7786 59.3972 38.8394C59.3106 38.8967 59.2144 38.9395 59.1087 38.9676C59.0041 38.9957 58.8956 39.0098 58.7831 39.0098H57.3457V38.8782C57.3784 38.8748 57.4217 38.8703 57.4757 38.8647C57.5296 38.8579 57.5673 38.8501 57.5887 38.8411C57.6292 38.8253 57.6573 38.8034 57.673 38.7753C57.6888 38.7472 57.6967 38.7112 57.6967 38.6673V36.9787C57.6967 36.9405 57.6893 36.9073 57.6747 36.8792C57.6612 36.85 57.6325 36.8258 57.5887 36.8067C57.5572 36.7932 57.5156 36.7808 57.4638 36.7696C57.4121 36.7583 57.3727 36.751 57.3457 36.7476V36.616H58.6633V36.7476C58.6285 36.7499 58.5852 36.7549 58.5334 36.7628C58.4817 36.7696 58.4384 36.7785 58.4035 36.7898C58.3608 36.8044 58.3321 36.8275 58.3175 36.859C58.3029 36.8904 58.2956 36.9247 58.2956 36.9619V37.6214C58.3473 37.6203 58.4041 37.6186 58.466 37.6164C58.5289 37.613 58.5897 37.6113 58.6482 37.6113C58.791 37.6113 58.926 37.6237 59.0531 37.6484C59.1813 37.6732 59.2915 37.712 59.3837 37.7648C59.4782 37.8199 59.5524 37.8902 59.6064 37.9757C59.6604 38.06 59.6874 38.1657 59.6874 38.2928ZM60.9257 39.0098H59.6486V38.8782C59.6801 38.8759 59.7183 38.8726 59.7633 38.8681C59.8094 38.8636 59.8437 38.8568 59.8662 38.8478C59.9078 38.8309 59.9365 38.809 59.9523 38.782C59.968 38.7539 59.9759 38.7185 59.9759 38.6757V36.9787C59.9759 36.9394 59.9686 36.9062 59.9539 36.8792C59.9393 36.8522 59.9101 36.8286 59.8662 36.8083C59.837 36.7949 59.7976 36.7825 59.7481 36.7712C59.6998 36.7589 59.661 36.751 59.6317 36.7476V36.616H60.9257V36.7476C60.8897 36.7499 60.8492 36.7549 60.8042 36.7628C60.7592 36.7696 60.7187 36.7785 60.6827 36.7898C60.64 36.8044 60.6113 36.8275 60.5967 36.859C60.5821 36.8904 60.5748 36.9247 60.5748 36.9619V38.6572C60.5748 38.6977 60.5821 38.732 60.5967 38.7601C60.6113 38.7882 60.64 38.8118 60.6827 38.8309C60.7097 38.8422 60.7485 38.8523 60.7992 38.8613C60.8509 38.8703 60.8931 38.8759 60.9257 38.8782V39.0098Z" fill="#656565"/>
<path d="M65.3778 39.0098H61.1585V38.8782C61.1866 38.8771 61.2277 38.8737 61.2817 38.8681C61.3368 38.8613 61.3767 38.8534 61.4014 38.8444C61.4419 38.8298 61.47 38.8079 61.4858 38.7786C61.5015 38.7483 61.5094 38.7129 61.5094 38.6724V36.9787C61.5094 36.9394 61.5021 36.9062 61.4875 36.8792C61.474 36.8522 61.4453 36.8286 61.4014 36.8083C61.3688 36.7937 61.3261 36.7808 61.2732 36.7696C61.2204 36.7572 61.1821 36.7499 61.1585 36.7476V36.616H62.417V36.7476C62.3833 36.7499 62.3456 36.7555 62.304 36.7645C62.2624 36.7735 62.2292 36.7819 62.2045 36.7898C62.164 36.8033 62.1364 36.8252 62.1218 36.8556C62.1083 36.8859 62.1016 36.9214 62.1016 36.9619V38.6572C62.1016 38.7033 62.1162 38.746 62.1454 38.7854C62.1747 38.8248 62.2281 38.8444 62.3057 38.8444C62.3529 38.8444 62.3906 38.8456 62.4187 38.8478C62.448 38.8489 62.4935 38.8495 62.5554 38.8495C62.6094 38.8495 62.6549 38.8489 62.692 38.8478C62.7291 38.8467 62.7758 38.8456 62.8321 38.8444C62.886 38.8433 62.9226 38.8309 62.9417 38.8073C62.962 38.7826 62.9721 38.7443 62.9721 38.6926V36.9787C62.9721 36.9394 62.9653 36.9062 62.9518 36.8792C62.9395 36.8522 62.9113 36.8286 62.8675 36.8083C62.8382 36.7949 62.8028 36.7825 62.7612 36.7712C62.7207 36.7589 62.6858 36.751 62.6566 36.7476V36.616H63.8865V36.7476C63.8505 36.7499 63.8117 36.7555 63.7701 36.7645C63.7284 36.7724 63.6941 36.7808 63.6671 36.7898C63.6244 36.8044 63.5963 36.8275 63.5828 36.859C63.5704 36.8904 63.5642 36.9247 63.5642 36.9619V38.6572C63.5642 38.7033 63.5789 38.746 63.6081 38.7854C63.6373 38.8248 63.6908 38.8444 63.7684 38.8444C63.8156 38.8444 63.8533 38.8456 63.8814 38.8478C63.9106 38.8489 63.9562 38.8495 64.0181 38.8495C64.072 38.8495 64.1176 38.8489 64.1547 38.8478C64.1918 38.8467 64.2385 38.8456 64.2947 38.8444C64.3487 38.8433 64.3853 38.8309 64.4044 38.8073C64.4246 38.7826 64.4348 38.7443 64.4348 38.6926V36.9787C64.4348 36.9394 64.428 36.9062 64.4145 36.8792C64.4021 36.8522 64.374 36.8286 64.3302 36.8083C64.3009 36.7949 64.2655 36.7825 64.2239 36.7712C64.1834 36.7589 64.1485 36.751 64.1193 36.7476V36.616H65.3778V36.7476C65.3418 36.7499 65.3013 36.7549 65.2564 36.7628C65.2114 36.7696 65.1709 36.7785 65.1349 36.7898C65.0921 36.8044 65.0635 36.8275 65.0488 36.859C65.0342 36.8904 65.0269 36.9247 65.0269 36.9619V38.6572C65.0269 38.6977 65.0342 38.732 65.0488 38.7601C65.0635 38.7882 65.0921 38.8118 65.1349 38.8309C65.1619 38.8422 65.2007 38.8523 65.2513 38.8613C65.303 38.8703 65.3452 38.8759 65.3778 38.8782V39.0098Z" fill="#656565"/>
<path d="M66.3833 36.8067C66.3518 36.792 66.3046 36.7797 66.2416 36.7696C66.1786 36.7583 66.1381 36.751 66.1201 36.7476V36.616H68.2644V36.7476C68.2284 36.7499 68.1879 36.7549 68.1429 36.7628C68.0979 36.7696 68.0574 36.7785 68.0214 36.7898C67.9787 36.8044 67.95 36.8275 67.9354 36.859C67.9208 36.8904 67.9135 36.9247 67.9135 36.9619V38.6572C67.9135 38.6977 67.9208 38.732 67.9354 38.7601C67.95 38.7882 67.9787 38.8118 68.0214 38.8309C68.0484 38.8422 68.0872 38.8523 68.1378 38.8613C68.1896 38.8703 68.2318 38.8759 68.2644 38.8782V39.0098H66.962V38.8782C66.9923 38.8759 67.0345 38.8726 67.0885 38.8681C67.1436 38.8636 67.1824 38.8568 67.2049 38.8478C67.2465 38.8309 67.2752 38.809 67.2909 38.782C67.3067 38.7539 67.3146 38.7185 67.3146 38.6757V36.7797H66.7427C66.728 37.1834 66.6875 37.5303 66.6212 37.8205C66.5548 38.1106 66.4755 38.3457 66.3833 38.5256C66.2843 38.719 66.1814 38.8568 66.0746 38.9389C65.9677 39.021 65.8659 39.062 65.7692 39.062C65.6939 39.062 65.6326 39.0514 65.5853 39.03C65.5381 39.0098 65.5015 38.9839 65.4757 38.9524C65.4487 38.9209 65.4307 38.8855 65.4217 38.8461C65.4127 38.8056 65.4082 38.7691 65.4082 38.7365C65.4082 38.6285 65.4414 38.5464 65.5077 38.4902C65.5741 38.4328 65.6511 38.4042 65.7389 38.4042C65.7996 38.4042 65.8586 38.4244 65.916 38.4649C65.9745 38.5054 66.0318 38.5582 66.0881 38.6235C66.1297 38.5571 66.1747 38.4688 66.223 38.3586C66.2725 38.2473 66.3158 38.1275 66.3529 37.9993C66.3957 37.8554 66.4294 37.7125 66.4542 37.5708C66.4789 37.428 66.4913 37.27 66.4913 37.0968C66.4913 37.0226 66.4845 36.9613 66.471 36.9129C66.4587 36.8646 66.4294 36.8292 66.3833 36.8067Z" fill="#656565"/>
<path d="M70.6195 37.2267H70.4913C70.4587 37.1356 70.4024 37.0434 70.3226 36.95C70.2427 36.8567 70.1634 36.8016 70.0847 36.7847C70.051 36.7769 70.0037 36.7724 69.943 36.7712C69.8834 36.769 69.8339 36.7679 69.7945 36.7679H69.447V37.6923H69.6933C69.7552 37.6923 69.8114 37.685 69.862 37.6704C69.9126 37.6557 69.9587 37.6276 70.0004 37.586C70.0262 37.5601 70.0521 37.5146 70.078 37.4494C70.105 37.3841 70.1224 37.3274 70.1303 37.279H70.2585V38.2776H70.1303C70.1235 38.2304 70.1061 38.1714 70.078 38.1005C70.051 38.0285 70.0251 37.9791 70.0004 37.9521C69.9632 37.9116 69.9194 37.884 69.8688 37.8694C69.8182 37.8537 69.7597 37.8458 69.6933 37.8458H69.447V38.5357C69.447 38.6077 69.4521 38.6651 69.4622 38.7078C69.4734 38.7494 69.4937 38.7815 69.5229 38.804C69.551 38.8253 69.5893 38.8394 69.6376 38.8461C69.6871 38.8529 69.754 38.8562 69.8384 38.8562C69.8778 38.8562 69.925 38.8557 69.9801 38.8546C70.0352 38.8534 70.0836 38.8501 70.1252 38.8444C70.1724 38.8388 70.2163 38.8304 70.2568 38.8191C70.2984 38.8079 70.3293 38.7916 70.3496 38.7702C70.4036 38.7151 70.4643 38.6313 70.5318 38.5189C70.5993 38.4053 70.6437 38.3204 70.6651 38.2641H70.7882L70.7427 39.0098H68.4972V38.8782C68.5287 38.8759 68.5714 38.8714 68.6254 38.8647C68.6794 38.8579 68.7176 38.8501 68.7401 38.8411C68.7829 38.8231 68.8115 38.8006 68.8262 38.7736C68.8408 38.7455 68.8481 38.71 68.8481 38.6673V36.9787C68.8481 36.9382 68.8419 36.9051 68.8295 36.8792C68.8172 36.8522 68.7874 36.828 68.7401 36.8067C68.7109 36.7932 68.6698 36.7808 68.617 36.7696C68.5641 36.7583 68.5242 36.751 68.4972 36.7476V36.616H70.6195V37.2267Z" fill="#656565"/>
<path d="M73.9126 39.0098H72.6187V38.8782C72.6468 38.8759 72.6878 38.8726 72.7418 38.8681C72.7958 38.8636 72.8329 38.8568 72.8532 38.8478C72.8948 38.8309 72.9235 38.809 72.9392 38.782C72.955 38.7539 72.9628 38.7185 72.9628 38.6757V37.8509H71.9405V38.6572C71.9405 38.6954 71.9483 38.7297 71.9641 38.7601C71.981 38.7905 72.0091 38.8141 72.0484 38.8309C72.0698 38.8399 72.1064 38.8495 72.1581 38.8596C72.2098 38.8697 72.252 38.8759 72.2846 38.8782V39.0098H70.9907V38.8782C71.0188 38.8771 71.0598 38.8737 71.1138 38.8681C71.1689 38.8613 71.2089 38.8534 71.2336 38.8444C71.2741 38.8298 71.3022 38.8079 71.3179 38.7786C71.3337 38.7483 71.3416 38.7129 71.3416 38.6724V36.9787C71.3416 36.9394 71.3343 36.9062 71.3196 36.8792C71.3061 36.8522 71.2775 36.8286 71.2336 36.8083C71.201 36.7937 71.1582 36.7808 71.1054 36.7696C71.0525 36.7572 71.0143 36.7499 70.9907 36.7476V36.616H72.2846V36.7476C72.2498 36.7499 72.2082 36.7555 72.1598 36.7645C72.1114 36.7735 72.0743 36.7819 72.0484 36.7898C72.0046 36.8044 71.9753 36.828 71.9607 36.8606C71.9472 36.8921 71.9405 36.9259 71.9405 36.9619V37.6771H72.9628V36.9787C72.9628 36.9394 72.9555 36.9062 72.9409 36.8792C72.9263 36.8522 72.897 36.8286 72.8532 36.8083C72.8239 36.7949 72.7846 36.7825 72.7351 36.7712C72.6867 36.7589 72.6479 36.751 72.6187 36.7476V36.616H73.9126V36.7476C73.8767 36.7499 73.8362 36.7549 73.7912 36.7628C73.7462 36.7696 73.7057 36.7785 73.6697 36.7898C73.627 36.8044 73.5983 36.8275 73.5837 36.859C73.569 36.8904 73.5617 36.9247 73.5617 36.9619V38.6572C73.5617 38.6977 73.569 38.732 73.5837 38.7601C73.5983 38.7882 73.627 38.8118 73.6697 38.8309C73.6967 38.8422 73.7355 38.8523 73.7861 38.8613C73.8379 38.8703 73.88 38.8759 73.9126 38.8782V39.0098Z" fill="#656565"/>
<path d="M77.0961 39.0098H75.8123V38.8782C75.8404 38.8759 75.8814 38.8726 75.9354 38.8681C75.9894 38.8624 76.0265 38.8551 76.0468 38.8461C76.0884 38.8293 76.1171 38.8073 76.1328 38.7803C76.1486 38.7522 76.1564 38.7168 76.1564 38.6741V37.2756L75.0801 38.6116C75.0801 38.6892 75.0874 38.7404 75.102 38.7652C75.1178 38.7899 75.1464 38.8118 75.1881 38.8309C75.2117 38.8411 75.2488 38.8512 75.2994 38.8613C75.35 38.8703 75.3916 38.8759 75.4242 38.8782V39.0098H74.1455V38.8782C74.1736 38.8771 74.2146 38.8737 74.2686 38.8681C74.3237 38.8613 74.3636 38.8534 74.3884 38.8444C74.4289 38.8298 74.457 38.8079 74.4727 38.7786C74.4885 38.7483 74.4964 38.7129 74.4964 38.6724V36.9787C74.4964 36.9394 74.4891 36.9062 74.4744 36.8792C74.4609 36.8522 74.4323 36.8286 74.3884 36.8083C74.3558 36.7937 74.313 36.7808 74.2602 36.7696C74.2073 36.7572 74.1691 36.7499 74.1455 36.7476V36.616H75.4293V36.7476C75.3944 36.7499 75.3528 36.7555 75.3045 36.7645C75.2561 36.7735 75.219 36.7819 75.1931 36.7898C75.1493 36.8044 75.12 36.828 75.1054 36.8606C75.0919 36.8921 75.0851 36.9259 75.0851 36.9619V38.3316L76.1615 36.9956C76.1615 36.9371 76.1531 36.8961 76.1362 36.8725C76.1193 36.8477 76.0912 36.8263 76.0518 36.8083C76.0192 36.7926 75.9793 36.7797 75.932 36.7696C75.8859 36.7594 75.8477 36.7521 75.8173 36.7476V36.616H77.0961V36.7476C77.0601 36.7499 77.0196 36.7549 76.9746 36.7628C76.9297 36.7696 76.8892 36.7785 76.8532 36.7898C76.8104 36.8044 76.7818 36.8275 76.7671 36.859C76.7525 36.8904 76.7452 36.9247 76.7452 36.9619V38.6572C76.7452 38.6977 76.7525 38.732 76.7671 38.7601C76.7818 38.7882 76.8104 38.8118 76.8532 38.8309C76.8802 38.8422 76.919 38.8523 76.9696 38.8613C77.0213 38.8703 77.0635 38.8759 77.0961 38.8782V39.0098Z" fill="#656565"/>
<path d="M79.4529 37.2267H79.3247C79.2921 37.1356 79.2359 37.0434 79.156 36.95C79.0762 36.8567 78.9969 36.8016 78.9181 36.7847C78.8844 36.7769 78.8372 36.7724 78.7764 36.7712C78.7168 36.769 78.6673 36.7679 78.628 36.7679H78.2804V37.6923H78.5267C78.5886 37.6923 78.6448 37.685 78.6954 37.6704C78.7461 37.6557 78.7922 37.6276 78.8338 37.586C78.8597 37.5601 78.8855 37.5146 78.9114 37.4494C78.9384 37.3841 78.9558 37.3274 78.9637 37.279H79.0919V38.2776H78.9637C78.9569 38.2304 78.9395 38.1714 78.9114 38.1005C78.8844 38.0285 78.8585 37.9791 78.8338 37.9521C78.7967 37.9116 78.7528 37.884 78.7022 37.8694C78.6516 37.8537 78.5931 37.8458 78.5267 37.8458H78.2804V38.5357C78.2804 38.6077 78.2855 38.6651 78.2956 38.7078C78.3069 38.7494 78.3271 38.7815 78.3563 38.804C78.3845 38.8253 78.4227 38.8394 78.4711 38.8461C78.5206 38.8529 78.5875 38.8562 78.6718 38.8562C78.7112 38.8562 78.7584 38.8557 78.8135 38.8546C78.8687 38.8534 78.917 38.8501 78.9586 38.8444C79.0059 38.8388 79.0497 38.8304 79.0902 38.8191C79.1318 38.8079 79.1628 38.7916 79.183 38.7702C79.237 38.7151 79.2977 38.6313 79.3652 38.5189C79.4327 38.4053 79.4771 38.3204 79.4985 38.2641H79.6216L79.5761 39.0098H77.3306V38.8782C77.3621 38.8759 77.4048 38.8714 77.4588 38.8647C77.5128 38.8579 77.5511 38.8501 77.5736 38.8411C77.6163 38.8231 77.645 38.8006 77.6596 38.7736C77.6742 38.7455 77.6815 38.71 77.6815 38.6673V36.9787C77.6815 36.9382 77.6753 36.9051 77.663 36.8792C77.6506 36.8522 77.6208 36.828 77.5736 36.8067C77.5443 36.7932 77.5033 36.7808 77.4504 36.7696C77.3975 36.7583 77.3576 36.751 77.3306 36.7476V36.616H79.4529V37.2267Z" fill="#656565"/>
<path d="M83.652 39.0098H82.3682V38.8782C82.3963 38.8759 82.4373 38.8726 82.4913 38.8681C82.5453 38.8624 82.5824 38.8551 82.6027 38.8461C82.6443 38.8293 82.673 38.8073 82.6887 38.7803C82.7045 38.7522 82.7123 38.7168 82.7123 38.6741V37.2756L81.636 38.6116C81.636 38.6892 81.6433 38.7404 81.6579 38.7652C81.6737 38.7899 81.7023 38.8118 81.744 38.8309C81.7676 38.8411 81.8047 38.8512 81.8553 38.8613C81.9059 38.8703 81.9475 38.8759 81.9801 38.8782V39.0098H80.7014V38.8782C80.7295 38.8771 80.7705 38.8737 80.8245 38.8681C80.8796 38.8613 80.9195 38.8534 80.9443 38.8444C80.9848 38.8298 81.0129 38.8079 81.0286 38.7786C81.0444 38.7483 81.0523 38.7129 81.0523 38.6724V36.9787C81.0523 36.9394 81.045 36.9062 81.0303 36.8792C81.0168 36.8522 80.9882 36.8286 80.9443 36.8083C80.9117 36.7937 80.8689 36.7808 80.8161 36.7696C80.7632 36.7572 80.725 36.7499 80.7014 36.7476V36.616H81.9852V36.7476C81.9503 36.7499 81.9087 36.7555 81.8604 36.7645C81.812 36.7735 81.7749 36.7819 81.749 36.7898C81.7052 36.8044 81.6759 36.828 81.6613 36.8606C81.6478 36.8921 81.641 36.9259 81.641 36.9619V38.3316L82.7174 36.9956C82.7174 36.9371 82.709 36.8961 82.6921 36.8725C82.6752 36.8477 82.6471 36.8263 82.6077 36.8083C82.5751 36.7926 82.5352 36.7797 82.4879 36.7696C82.4418 36.7594 82.4036 36.7521 82.3732 36.7476V36.616H83.652V36.7476C83.616 36.7499 83.5755 36.7549 83.5306 36.7628C83.4856 36.7696 83.4451 36.7785 83.4091 36.7898C83.3663 36.8044 83.3377 36.8275 83.323 36.859C83.3084 36.8904 83.3011 36.9247 83.3011 36.9619V38.6572C83.3011 38.6977 83.3084 38.732 83.323 38.7601C83.3377 38.7882 83.3663 38.8118 83.4091 38.8309C83.4361 38.8422 83.4749 38.8523 83.5255 38.8613C83.5772 38.8703 83.6194 38.8759 83.652 38.8782V39.0098Z" fill="#656565"/>
<path d="M86.8085 39.0098H85.5145V38.8782C85.5426 38.8759 85.5837 38.8726 85.6377 38.8681C85.6917 38.8636 85.7288 38.8568 85.749 38.8478C85.7906 38.8309 85.8193 38.809 85.8351 38.782C85.8508 38.7539 85.8587 38.7185 85.8587 38.6757V37.8509H84.8363V38.6572C84.8363 38.6954 84.8442 38.7297 84.86 38.7601C84.8768 38.7905 84.9049 38.8141 84.9443 38.8309C84.9657 38.8399 85.0022 38.8495 85.054 38.8596C85.1057 38.8697 85.1479 38.8759 85.1805 38.8782V39.0098H83.8865V38.8782C83.9146 38.8771 83.9557 38.8737 84.0097 38.8681C84.0648 38.8613 84.1047 38.8534 84.1295 38.8444C84.1699 38.8298 84.1981 38.8079 84.2138 38.7786C84.2296 38.7483 84.2374 38.7129 84.2374 38.6724V36.9787C84.2374 36.9394 84.2301 36.9062 84.2155 36.8792C84.202 36.8522 84.1733 36.8286 84.1295 36.8083C84.0968 36.7937 84.0541 36.7808 84.0012 36.7696C83.9484 36.7572 83.9101 36.7499 83.8865 36.7476V36.616H85.1805V36.7476C85.1456 36.7499 85.104 36.7555 85.0557 36.7645C85.0073 36.7735 84.9702 36.7819 84.9443 36.7898C84.9004 36.8044 84.8712 36.828 84.8566 36.8606C84.8431 36.8921 84.8363 36.9259 84.8363 36.9619V37.6771H85.8587V36.9787C85.8587 36.9394 85.8514 36.9062 85.8368 36.8792C85.8221 36.8522 85.7929 36.8286 85.749 36.8083C85.7198 36.7949 85.6804 36.7825 85.6309 36.7712C85.5826 36.7589 85.5438 36.751 85.5145 36.7476V36.616H86.8085V36.7476C86.7725 36.7499 86.732 36.7549 86.687 36.7628C86.642 36.7696 86.6016 36.7785 86.5656 36.7898C86.5228 36.8044 86.4941 36.8275 86.4795 36.859C86.4649 36.8904 86.4576 36.9247 86.4576 36.9619V38.6572C86.4576 38.6977 86.4649 38.732 86.4795 38.7601C86.4941 38.7882 86.5228 38.8118 86.5656 38.8309C86.5926 38.8422 86.6314 38.8523 86.682 38.8613C86.7337 38.8703 86.7759 38.8759 86.8085 38.8782V39.0098Z" fill="#656565"/>
<path d="M89.2665 37.3009H89.1366C89.1018 37.1986 89.0455 37.0889 88.9679 36.972C88.8914 36.855 88.8206 36.792 88.7554 36.783C88.7194 36.7785 88.6749 36.7746 88.6221 36.7712C88.5692 36.7679 88.5237 36.7662 88.4854 36.7662H88.4061V38.6437C88.4061 38.6842 88.4135 38.7202 88.4281 38.7517C88.4427 38.782 88.4714 38.8062 88.5141 38.8242C88.54 38.8343 88.5799 38.845 88.6339 38.8562C88.689 38.8664 88.7357 38.8737 88.7739 38.8782V39.0098H87.4395V38.8782C87.4721 38.8748 87.5176 38.8703 87.5761 38.8647C87.6357 38.8579 87.6762 38.8501 87.6976 38.8411C87.7414 38.8231 87.7707 38.7989 87.7853 38.7685C87.7999 38.7382 87.8072 38.7022 87.8072 38.6606V36.7662H87.7279C87.6897 36.7662 87.6442 36.7679 87.5913 36.7712C87.5384 36.7746 87.494 36.7785 87.458 36.783C87.3928 36.792 87.3214 36.855 87.2438 36.972C87.1673 37.0889 87.1116 37.1986 87.0767 37.3009H86.9468V36.616H89.2665V37.3009Z" fill="#656565"/>
<path d="M91.5289 37.2267H91.4007C91.3681 37.1356 91.3118 37.0434 91.232 36.95C91.1521 36.8567 91.0728 36.8016 90.9941 36.7847C90.9603 36.7769 90.9131 36.7724 90.8524 36.7712C90.7928 36.769 90.7433 36.7679 90.7039 36.7679H90.3564V37.6923H90.6027C90.6646 37.6923 90.7208 37.685 90.7714 37.6704C90.822 37.6557 90.8681 37.6276 90.9097 37.586C90.9356 37.5601 90.9615 37.5146 90.9873 37.4494C91.0143 37.3841 91.0318 37.3274 91.0396 37.279H91.1679V38.2776H91.0396C91.0329 38.2304 91.0155 38.1714 90.9873 38.1005C90.9603 38.0285 90.9345 37.9791 90.9097 37.9521C90.8726 37.9116 90.8288 37.884 90.7781 37.8694C90.7275 37.8537 90.669 37.8458 90.6027 37.8458H90.3564V38.5357C90.3564 38.6077 90.3614 38.6651 90.3716 38.7078C90.3828 38.7494 90.4031 38.7815 90.4323 38.804C90.4604 38.8253 90.4987 38.8394 90.547 38.8461C90.5965 38.8529 90.6634 38.8562 90.7478 38.8562C90.7871 38.8562 90.8344 38.8557 90.8895 38.8546C90.9446 38.8534 90.993 38.8501 91.0346 38.8444C91.0818 38.8388 91.1257 38.8304 91.1662 38.8191C91.2078 38.8079 91.2387 38.7916 91.259 38.7702C91.3129 38.7151 91.3737 38.6313 91.4412 38.5189C91.5086 38.4053 91.5531 38.3204 91.5744 38.2641H91.6976L91.652 39.0098H89.4066V38.8782C89.4381 38.8759 89.4808 38.8714 89.5348 38.8647C89.5888 38.8579 89.627 38.8501 89.6495 38.8411C89.6922 38.8231 89.7209 38.8006 89.7355 38.7736C89.7502 38.7455 89.7575 38.71 89.7575 38.6673V36.9787C89.7575 36.9382 89.7513 36.9051 89.7389 36.8792C89.7265 36.8522 89.6967 36.828 89.6495 36.8067C89.6203 36.7932 89.5792 36.7808 89.5263 36.7696C89.4735 36.7583 89.4336 36.751 89.4066 36.7476V36.616H91.5289V37.2267Z" fill="#656565"/>
<path d="M92.671 36.8067C92.6395 36.792 92.5923 36.7797 92.5293 36.7696C92.4663 36.7583 92.4258 36.751 92.4078 36.7476V36.616H94.5521V36.7476C94.5161 36.7499 94.4756 36.7549 94.4306 36.7628C94.3856 36.7696 94.3451 36.7785 94.3092 36.7898C94.2664 36.8044 94.2377 36.8275 94.2231 36.859C94.2085 36.8904 94.2012 36.9247 94.2012 36.9619V38.6572C94.2012 38.6977 94.2085 38.732 94.2231 38.7601C94.2377 38.7882 94.2664 38.8118 94.3092 38.8309C94.3361 38.8422 94.375 38.8523 94.4256 38.8613C94.4773 38.8703 94.5195 38.8759 94.5521 38.8782V39.0098H93.2497V38.8782C93.28 38.8759 93.3222 38.8726 93.3762 38.8681C93.4313 38.8636 93.4701 38.8568 93.4926 38.8478C93.5342 38.8309 93.5629 38.809 93.5787 38.782C93.5944 38.7539 93.6023 38.7185 93.6023 38.6757V36.7797H93.0304C93.0157 37.1834 92.9753 37.5303 92.9089 37.8205C92.8425 38.1106 92.7632 38.3457 92.671 38.5256C92.572 38.719 92.4691 38.8568 92.3623 38.9389C92.2554 39.021 92.1537 39.062 92.0569 39.062C91.9816 39.062 91.9203 39.0514 91.873 39.03C91.8258 39.0098 91.7893 38.9839 91.7634 38.9524C91.7364 38.9209 91.7184 38.8855 91.7094 38.8461C91.7004 38.8056 91.6959 38.7691 91.6959 38.7365C91.6959 38.6285 91.7291 38.5464 91.7954 38.4902C91.8618 38.4328 91.9388 38.4042 92.0266 38.4042C92.0873 38.4042 92.1463 38.4244 92.2037 38.4649C92.2622 38.5054 92.3195 38.5582 92.3758 38.6235C92.4174 38.5571 92.4624 38.4688 92.5107 38.3586C92.5602 38.2473 92.6035 38.1275 92.6407 37.9993C92.6834 37.8554 92.7171 37.7125 92.7419 37.5708C92.7666 37.428 92.779 37.27 92.779 37.0968C92.779 37.0226 92.7722 36.9613 92.7587 36.9129C92.7464 36.8646 92.7171 36.8292 92.671 36.8067Z" fill="#656565"/>
<path d="M95.5559 36.8067C95.5244 36.792 95.4772 36.7797 95.4142 36.7696C95.3512 36.7583 95.3107 36.751 95.2927 36.7476V36.616H97.437V36.7476C97.401 36.7499 97.3605 36.7549 97.3155 36.7628C97.2705 36.7696 97.23 36.7785 97.194 36.7898C97.1513 36.8044 97.1226 36.8275 97.108 36.859C97.0934 36.8904 97.086 36.9247 97.086 36.9619V38.6572C97.086 38.6977 97.0934 38.732 97.108 38.7601C97.1226 38.7882 97.1513 38.8118 97.194 38.8309C97.221 38.8422 97.2598 38.8523 97.3104 38.8613C97.3622 38.8703 97.4043 38.8759 97.437 38.8782V39.0098H96.1345V38.8782C96.1649 38.8759 96.2071 38.8726 96.2611 38.8681C96.3162 38.8636 96.355 38.8568 96.3775 38.8478C96.4191 38.8309 96.4478 38.809 96.4635 38.782C96.4793 38.7539 96.4871 38.7185 96.4871 38.6757V36.7797H95.9152C95.9006 37.1834 95.8601 37.5303 95.7938 37.8205C95.7274 38.1106 95.6481 38.3457 95.5559 38.5256C95.4569 38.719 95.354 38.8568 95.2472 38.9389C95.1403 39.021 95.0385 39.062 94.9418 39.062C94.8664 39.062 94.8051 39.0514 94.7579 39.03C94.7107 39.0098 94.6741 38.9839 94.6483 38.9524C94.6213 38.9209 94.6033 38.8855 94.5943 38.8461C94.5853 38.8056 94.5808 38.7691 94.5808 38.7365C94.5808 38.6285 94.6139 38.5464 94.6803 38.4902C94.7467 38.4328 94.8237 38.4042 94.9114 38.4042C94.9722 38.4042 95.0312 38.4244 95.0886 38.4649C95.1471 38.5054 95.2044 38.5582 95.2607 38.6235C95.3023 38.5571 95.3473 38.4688 95.3956 38.3586C95.4451 38.2473 95.4884 38.1275 95.5255 37.9993C95.5683 37.8554 95.602 37.7125 95.6267 37.5708C95.6515 37.428 95.6639 37.27 95.6639 37.0968C95.6639 37.0226 95.6571 36.9613 95.6436 36.9129C95.6312 36.8646 95.602 36.8292 95.5559 36.8067Z" fill="#656565"/>
<path d="M99.7921 37.2267H99.6639C99.6313 37.1356 99.575 37.0434 99.4952 36.95C99.4153 36.8567 99.336 36.8016 99.2573 36.7847C99.2235 36.7769 99.1763 36.7724 99.1156 36.7712C99.056 36.769 99.0065 36.7679 98.9671 36.7679H98.6196V37.6923H98.8659C98.9278 37.6923 98.984 37.685 99.0346 37.6704C99.0852 37.6557 99.1313 37.6276 99.1729 37.586C99.1988 37.5601 99.2247 37.5146 99.2505 37.4494C99.2775 37.3841 99.295 37.3274 99.3028 37.279H99.4311V38.2776H99.3028C99.2961 38.2304 99.2787 38.1714 99.2505 38.1005C99.2235 38.0285 99.1977 37.9791 99.1729 37.9521C99.1358 37.9116 99.092 37.884 99.0413 37.8694C98.9907 37.8537 98.9323 37.8458 98.8659 37.8458H98.6196V38.5357C98.6196 38.6077 98.6246 38.6651 98.6348 38.7078C98.646 38.7494 98.6663 38.7815 98.6955 38.804C98.7236 38.8253 98.7619 38.8394 98.8102 38.8461C98.8597 38.8529 98.9266 38.8562 99.011 38.8562C99.0503 38.8562 99.0976 38.8557 99.1527 38.8546C99.2078 38.8534 99.2562 38.8501 99.2978 38.8444C99.345 38.8388 99.3889 38.8304 99.4294 38.8191C99.471 38.8079 99.5019 38.7916 99.5222 38.7702C99.5761 38.7151 99.6369 38.6313 99.7044 38.5189C99.7718 38.4053 99.8163 38.3204 99.8376 38.2641H99.9608L99.9152 39.0098H97.6698V38.8782C97.7013 38.8759 97.744 38.8714 97.798 38.8647C97.852 38.8579 97.8902 38.8501 97.9127 38.8411C97.9554 38.8231 97.9841 38.8006 97.9987 38.7736C98.0134 38.7455 98.0207 38.71 98.0207 38.6673V36.9787C98.0207 36.9382 98.0145 36.9051 98.0021 36.8792C97.9897 36.8522 97.9599 36.828 97.9127 36.8067C97.8835 36.7932 97.8424 36.7808 97.7896 36.7696C97.7367 36.7583 97.6968 36.751 97.6698 36.7476V36.616H99.7921V37.2267Z" fill="#656565"/>
<path d="M102.849 39.0098H101.931C101.892 38.8939 101.853 38.7781 101.813 38.6623C101.774 38.5464 101.732 38.439 101.688 38.3401C101.657 38.267 101.625 38.2051 101.594 38.1545C101.563 38.1028 101.526 38.0589 101.481 38.0229C101.438 37.9869 101.386 37.9605 101.326 37.9436C101.266 37.9256 101.195 37.9166 101.113 37.9166V38.6572C101.113 38.6954 101.121 38.7297 101.137 38.7601C101.154 38.7905 101.182 38.8141 101.221 38.8309C101.242 38.8399 101.279 38.8495 101.331 38.8596C101.382 38.8697 101.425 38.8759 101.457 38.8782V39.0098H100.163V38.8782C100.191 38.8771 100.232 38.8737 100.286 38.8681C100.341 38.8613 100.381 38.8534 100.406 38.8444C100.447 38.8298 100.475 38.8079 100.491 38.7786C100.506 38.7483 100.514 38.7129 100.514 38.6724V36.9787C100.514 36.9394 100.507 36.9062 100.492 36.8792C100.479 36.8522 100.45 36.8286 100.406 36.8083C100.374 36.7937 100.331 36.7808 100.278 36.7696C100.225 36.7572 100.187 36.7499 100.163 36.7476V36.616H101.457V36.7476C101.422 36.7499 101.381 36.7555 101.332 36.7645C101.284 36.7735 101.247 36.7819 101.221 36.7898C101.177 36.8044 101.148 36.828 101.133 36.8606C101.12 36.8921 101.113 36.9259 101.113 36.9619V37.7581H101.223C101.268 37.7581 101.314 37.7519 101.363 37.7395C101.412 37.726 101.457 37.6996 101.496 37.6602C101.577 37.5804 101.638 37.5 101.678 37.419C101.719 37.3369 101.754 37.2531 101.783 37.1677C101.817 37.0732 101.847 36.9933 101.874 36.9281C101.901 36.8618 101.954 36.7898 102.034 36.7122C102.074 36.6728 102.122 36.6419 102.179 36.6194C102.237 36.5958 102.3 36.584 102.368 36.584C102.481 36.584 102.57 36.6127 102.635 36.67C102.7 36.7274 102.733 36.8005 102.733 36.8893C102.733 36.9872 102.705 37.0636 102.65 37.1187C102.595 37.1727 102.525 37.1997 102.439 37.1997C102.385 37.1997 102.332 37.184 102.28 37.1525C102.23 37.121 102.169 37.0603 102.098 36.9703C102.065 37.0052 102.035 37.0591 102.009 37.1322C101.984 37.2042 101.961 37.2672 101.94 37.3212C101.896 37.4325 101.853 37.5174 101.811 37.5759C101.77 37.6332 101.722 37.681 101.668 37.7193V37.7496C101.826 37.7912 101.956 37.8599 102.059 37.9554C102.163 38.051 102.247 38.1674 102.311 38.3046C102.339 38.3642 102.368 38.4278 102.397 38.4952C102.427 38.5616 102.454 38.6184 102.476 38.6656C102.511 38.7387 102.545 38.7871 102.577 38.8107C102.611 38.8343 102.639 38.8478 102.66 38.8512C102.686 38.8568 102.717 38.8624 102.755 38.8681C102.793 38.8726 102.824 38.8759 102.849 38.8782V39.0098Z" fill="#656565"/>
<path d="M105.152 37.3009H105.022C104.987 37.1986 104.931 37.0889 104.853 36.972C104.777 36.855 104.706 36.792 104.641 36.783C104.605 36.7785 104.56 36.7746 104.507 36.7712C104.455 36.7679 104.409 36.7662 104.371 36.7662H104.291V38.6437C104.291 38.6842 104.299 38.7202 104.313 38.7517C104.328 38.782 104.357 38.8062 104.399 38.8242C104.425 38.8343 104.465 38.845 104.519 38.8562C104.574 38.8664 104.621 38.8737 104.659 38.8782V39.0098H103.325V38.8782C103.357 38.8748 103.403 38.8703 103.461 38.8647C103.521 38.8579 103.562 38.8501 103.583 38.8411C103.627 38.8231 103.656 38.7989 103.671 38.7685C103.685 38.7382 103.693 38.7022 103.693 38.6606V36.7662H103.613C103.575 36.7662 103.529 36.7679 103.477 36.7712C103.424 36.7746 103.379 36.7785 103.343 36.783C103.278 36.792 103.207 36.855 103.129 36.972C103.053 37.0889 102.997 37.1986 102.962 37.3009H102.832V36.616H105.152V37.3009Z" fill="#656565"/>
<path d="M108.413 37.2149C108.413 37.3498 108.385 37.4662 108.329 37.5641C108.273 37.6608 108.197 37.7395 108.099 37.8002C107.998 37.8632 107.882 37.9088 107.752 37.9369C107.622 37.965 107.477 37.9791 107.315 37.9791H107.119V38.6521C107.119 38.6926 107.126 38.728 107.141 38.7584C107.157 38.7876 107.186 38.8113 107.229 38.8293C107.251 38.8383 107.288 38.8478 107.338 38.8579C107.389 38.8681 107.432 38.8748 107.467 38.8782V39.0098H106.169V38.8782C106.202 38.8748 106.245 38.8703 106.299 38.8647C106.353 38.8579 106.391 38.8501 106.412 38.8411C106.456 38.8231 106.485 38.8011 106.498 38.7753C106.513 38.7494 106.52 38.7134 106.52 38.6673V36.9787C106.52 36.9394 106.513 36.9056 106.5 36.8775C106.486 36.8483 106.457 36.8241 106.412 36.805C106.381 36.7915 106.338 36.7797 106.286 36.7696C106.234 36.7583 106.195 36.751 106.169 36.7476V36.616H107.49C107.799 36.616 108.031 36.6655 108.184 36.7645C108.336 36.8623 108.413 37.0125 108.413 37.2149ZM107.755 37.3009C107.755 37.121 107.718 36.9877 107.645 36.9011C107.573 36.8134 107.445 36.7696 107.259 36.7696H107.119V37.8205H107.19C107.374 37.8205 107.514 37.7783 107.61 37.694C107.707 37.6085 107.755 37.4775 107.755 37.3009Z" fill="#656565"/>
<path d="M111.19 39.0098H109.886V38.8782C109.946 38.8737 110.018 38.863 110.1 38.8461C110.182 38.8281 110.223 38.8062 110.223 38.7803C110.223 38.7713 110.222 38.7612 110.22 38.75C110.219 38.7387 110.214 38.7235 110.206 38.7044L110.002 38.2085H109.175C109.156 38.2546 109.135 38.3086 109.111 38.3704C109.089 38.4323 109.069 38.4874 109.052 38.5357C109.031 38.5987 109.018 38.6443 109.014 38.6724C109.01 38.7005 109.008 38.7202 109.008 38.7314C109.008 38.7674 109.035 38.7983 109.089 38.8242C109.145 38.8489 109.236 38.8669 109.363 38.8782V39.0098H108.381V38.8782C108.418 38.8759 108.46 38.8703 108.506 38.8613C108.553 38.8512 108.59 38.8377 108.617 38.8208C108.663 38.7938 108.702 38.7607 108.733 38.7213C108.766 38.6819 108.793 38.6353 108.814 38.5813C108.945 38.2653 109.075 37.9487 109.206 37.6316C109.337 37.3144 109.483 36.9647 109.641 36.5823H109.979C110.199 37.1244 110.372 37.5528 110.496 37.8677C110.621 38.1826 110.728 38.4435 110.815 38.6504C110.83 38.6842 110.848 38.7151 110.871 38.7432C110.893 38.7702 110.926 38.7961 110.967 38.8208C110.999 38.8388 111.035 38.8523 111.077 38.8613C111.118 38.8703 111.156 38.8759 111.19 38.8782V39.0098ZM109.933 38.0415L109.585 37.1744L109.243 38.0415H109.933Z" fill="#656565"/>
<path d="M113.037 37.8559C113.113 37.902 113.173 37.9628 113.218 38.0381C113.264 38.1134 113.287 38.204 113.287 38.3097C113.287 38.5335 113.177 38.7174 112.958 38.8613C112.739 39.0041 112.459 39.0755 112.119 39.0755C111.828 39.0755 111.598 39.0199 111.428 38.9085C111.258 38.7972 111.173 38.6561 111.173 38.4851C111.173 38.4098 111.202 38.3423 111.259 38.2827C111.316 38.222 111.387 38.1916 111.47 38.1916C111.568 38.1916 111.645 38.2169 111.701 38.2675C111.758 38.317 111.787 38.3839 111.787 38.4683C111.787 38.5324 111.776 38.5959 111.753 38.6589C111.732 38.7207 111.715 38.7691 111.703 38.804C111.742 38.8321 111.786 38.8574 111.834 38.8799C111.884 38.9012 111.955 38.9119 112.047 38.9119C112.226 38.9119 112.366 38.8596 112.469 38.755C112.571 38.6504 112.622 38.5065 112.622 38.3232C112.622 38.2658 112.616 38.2079 112.604 38.1494C112.591 38.0898 112.568 38.0387 112.533 37.9959C112.499 37.9532 112.448 37.9183 112.381 37.8913C112.315 37.8632 112.232 37.8492 112.133 37.8492H111.905V37.6467H112.07C112.238 37.6467 112.357 37.6051 112.426 37.5219C112.497 37.4387 112.533 37.3077 112.533 37.1289C112.533 37.0726 112.525 37.0192 112.509 36.9686C112.494 36.918 112.472 36.8741 112.442 36.837C112.41 36.7999 112.371 36.7707 112.324 36.7493C112.277 36.7268 112.223 36.7156 112.16 36.7156C112.014 36.7156 111.883 36.7802 111.768 36.9096C111.654 37.0389 111.562 37.2256 111.492 37.4696H111.343L111.359 36.616H111.51L111.61 36.7088C111.698 36.6661 111.797 36.6295 111.909 36.5992C112.02 36.5677 112.147 36.5519 112.29 36.5519C112.569 36.5519 112.788 36.6037 112.948 36.7071C113.107 36.8095 113.187 36.9456 113.187 37.1154C113.187 37.1705 113.177 37.2284 113.155 37.2891C113.135 37.3498 113.101 37.4049 113.052 37.4544C113.004 37.5062 112.939 37.554 112.857 37.5978C112.775 37.6417 112.669 37.6777 112.541 37.7058V37.7277C112.622 37.7288 112.707 37.7395 112.794 37.7598C112.883 37.7789 112.964 37.8109 113.037 37.8559Z" fill="#656565"/>
<path d="M115.666 37.9116C115.738 37.9611 115.796 38.0235 115.841 38.0988C115.886 38.1731 115.909 38.2608 115.909 38.362C115.909 38.4834 115.883 38.5863 115.831 38.6707C115.78 38.7539 115.707 38.8197 115.612 38.8681C115.51 38.9198 115.393 38.9563 115.261 38.9777C115.129 38.9991 114.974 39.0098 114.795 39.0098H113.552V38.8782C113.587 38.8748 113.63 38.8697 113.683 38.863C113.736 38.8562 113.773 38.8484 113.795 38.8394C113.836 38.8225 113.864 38.8006 113.879 38.7736C113.895 38.7455 113.903 38.7095 113.903 38.6656V36.9787C113.903 36.9382 113.896 36.9045 113.884 36.8775C113.872 36.8505 113.842 36.8269 113.795 36.8067C113.76 36.792 113.719 36.7802 113.673 36.7712C113.627 36.7611 113.587 36.7532 113.552 36.7476V36.616H114.852C115.18 36.616 115.416 36.661 115.561 36.751C115.706 36.841 115.779 36.9737 115.779 37.1491C115.779 37.2301 115.762 37.3015 115.73 37.3633C115.697 37.4241 115.65 37.4769 115.59 37.5219C115.535 37.5635 115.469 37.5995 115.392 37.6299C115.316 37.6602 115.234 37.6855 115.146 37.7058V37.7378C115.234 37.7468 115.325 37.7665 115.419 37.7969C115.514 37.8261 115.596 37.8643 115.666 37.9116ZM115.122 37.1913C115.122 37.0586 115.085 36.9551 115.009 36.8809C114.935 36.8067 114.823 36.7696 114.674 36.7696C114.652 36.7696 114.624 36.7707 114.589 36.7729C114.556 36.774 114.526 36.7752 114.502 36.7763V37.6636H114.589C114.771 37.6636 114.906 37.6214 114.992 37.5371C115.079 37.4516 115.122 37.3363 115.122 37.1913ZM115.24 38.3401C115.24 38.1736 115.191 38.046 115.092 37.9571C114.993 37.8683 114.851 37.8239 114.665 37.8239C114.644 37.8239 114.615 37.825 114.579 37.8272C114.544 37.8284 114.518 37.8295 114.502 37.8306V38.7061C114.512 38.7477 114.543 38.7831 114.596 38.8124C114.649 38.8405 114.713 38.8546 114.788 38.8546C114.922 38.8546 115.031 38.8096 115.114 38.7196C115.198 38.6296 115.24 38.5031 115.24 38.3401Z" fill="#656565"/>
<path d="M119.121 39.0098H117.837V38.8782C117.865 38.8759 117.906 38.8726 117.96 38.8681C118.014 38.8624 118.051 38.8551 118.071 38.8461C118.113 38.8293 118.142 38.8073 118.157 38.7803C118.173 38.7522 118.181 38.7168 118.181 38.6741V37.2756L117.105 38.6116C117.105 38.6892 117.112 38.7404 117.127 38.7652C117.142 38.7899 117.171 38.8118 117.213 38.8309C117.236 38.8411 117.273 38.8512 117.324 38.8613C117.375 38.8703 117.416 38.8759 117.449 38.8782V39.0098H116.17V38.8782C116.198 38.8771 116.239 38.8737 116.293 38.8681C116.348 38.8613 116.388 38.8534 116.413 38.8444C116.453 38.8298 116.482 38.8079 116.497 38.7786C116.513 38.7483 116.521 38.7129 116.521 38.6724V36.9787C116.521 36.9394 116.514 36.9062 116.499 36.8792C116.486 36.8522 116.457 36.8286 116.413 36.8083C116.38 36.7937 116.338 36.7808 116.285 36.7696C116.232 36.7572 116.194 36.7499 116.17 36.7476V36.616H117.454V36.7476C117.419 36.7499 117.377 36.7555 117.329 36.7645C117.281 36.7735 117.244 36.7819 117.218 36.7898C117.174 36.8044 117.145 36.828 117.13 36.8606C117.116 36.8921 117.11 36.9259 117.11 36.9619V38.3316L118.186 36.9956C118.186 36.9371 118.178 36.8961 118.161 36.8725C118.144 36.8477 118.116 36.8263 118.076 36.8083C118.044 36.7926 118.004 36.7797 117.957 36.7696C117.911 36.7594 117.872 36.7521 117.842 36.7476V36.616H119.121V36.7476C119.085 36.7499 119.044 36.7549 118.999 36.7628C118.954 36.7696 118.914 36.7785 118.878 36.7898C118.835 36.8044 118.806 36.8275 118.792 36.859C118.777 36.8904 118.77 36.9247 118.77 36.9619V38.6572C118.77 38.6977 118.777 38.732 118.792 38.7601C118.806 38.7882 118.835 38.8118 118.878 38.8309C118.905 38.8422 118.944 38.8523 118.994 38.8613C119.046 38.8703 119.088 38.8759 119.121 38.8782V39.0098Z" fill="#656565"/>
<path d="M121.58 37.3009H121.451C121.416 37.1986 121.359 37.0889 121.282 36.972C121.205 36.855 121.134 36.792 121.069 36.783C121.033 36.7785 120.989 36.7746 120.936 36.7712C120.883 36.7679 120.838 36.7662 120.799 36.7662H120.72V38.6437C120.72 38.6842 120.727 38.7202 120.742 38.7517C120.757 38.782 120.785 38.8062 120.828 38.8242C120.854 38.8343 120.894 38.845 120.948 38.8562C121.003 38.8664 121.05 38.8737 121.088 38.8782V39.0098H119.753V38.8782C119.786 38.8748 119.832 38.8703 119.89 38.8647C119.95 38.8579 119.99 38.8501 120.011 38.8411C120.055 38.8231 120.085 38.7989 120.099 38.7685C120.114 38.7382 120.121 38.7022 120.121 38.6606V36.7662H120.042C120.004 36.7662 119.958 36.7679 119.905 36.7712C119.852 36.7746 119.808 36.7785 119.772 36.783C119.707 36.792 119.635 36.855 119.558 36.972C119.481 37.0889 119.425 37.1986 119.391 37.3009H119.261V36.616H121.58V37.3009Z" fill="#656565"/>
<path d="M124.671 39.0098H123.387V38.8782C123.415 38.8759 123.456 38.8726 123.51 38.8681C123.564 38.8624 123.602 38.8551 123.622 38.8461C123.663 38.8293 123.692 38.8073 123.708 38.7803C123.724 38.7522 123.731 38.7168 123.731 38.6741V37.2756L122.655 38.6116C122.655 38.6892 122.662 38.7404 122.677 38.7652C122.693 38.7899 122.721 38.8118 122.763 38.8309C122.787 38.8411 122.824 38.8512 122.874 38.8613C122.925 38.8703 122.967 38.8759 122.999 38.8782V39.0098H121.72V38.8782C121.749 38.8771 121.79 38.8737 121.844 38.8681C121.899 38.8613 121.939 38.8534 121.963 38.8444C122.004 38.8298 122.032 38.8079 122.048 38.7786C122.063 38.7483 122.071 38.7129 122.071 38.6724V36.9787C122.071 36.9394 122.064 36.9062 122.049 36.8792C122.036 36.8522 122.007 36.8286 121.963 36.8083C121.931 36.7937 121.888 36.7808 121.835 36.7696C121.782 36.7572 121.744 36.7499 121.72 36.7476V36.616H123.004V36.7476C122.969 36.7499 122.928 36.7555 122.879 36.7645C122.831 36.7735 122.794 36.7819 122.768 36.7898C122.724 36.8044 122.695 36.828 122.68 36.8606C122.667 36.8921 122.66 36.9259 122.66 36.9619V38.3316L123.736 36.9956C123.736 36.9371 123.728 36.8961 123.711 36.8725C123.694 36.8477 123.666 36.8263 123.627 36.8083C123.594 36.7926 123.554 36.7797 123.507 36.7696C123.461 36.7594 123.423 36.7521 123.392 36.7476V36.616H124.671V36.7476C124.635 36.7499 124.595 36.7549 124.55 36.7628C124.505 36.7696 124.464 36.7785 124.428 36.7898C124.385 36.8044 124.357 36.8275 124.342 36.859C124.328 36.8904 124.32 36.9247 124.32 36.9619V38.6572C124.32 38.6977 124.328 38.732 124.342 38.7601C124.357 38.7882 124.385 38.8118 124.428 38.8309C124.455 38.8422 124.494 38.8523 124.545 38.8613C124.596 38.8703 124.638 38.8759 124.671 38.8782V39.0098Z" fill="#656565"/>
<path d="M127.028 37.2267H126.9C126.867 37.1356 126.811 37.0434 126.731 36.95C126.651 36.8567 126.572 36.8016 126.493 36.7847C126.459 36.7769 126.412 36.7724 126.351 36.7712C126.292 36.769 126.242 36.7679 126.203 36.7679H125.855V37.6923H126.102C126.164 37.6923 126.22 37.685 126.27 37.6704C126.321 37.6557 126.367 37.6276 126.409 37.586C126.435 37.5601 126.461 37.5146 126.486 37.4494C126.513 37.3841 126.531 37.3274 126.539 37.279H126.667V38.2776H126.539C126.532 38.2304 126.514 38.1714 126.486 38.1005C126.459 38.0285 126.434 37.9791 126.409 37.9521C126.372 37.9116 126.328 37.884 126.277 37.8694C126.227 37.8537 126.168 37.8458 126.102 37.8458H125.855V38.5357C125.855 38.6077 125.86 38.6651 125.871 38.7078C125.882 38.7494 125.902 38.7815 125.931 38.804C125.959 38.8253 125.998 38.8394 126.046 38.8461C126.096 38.8529 126.162 38.8562 126.247 38.8562C126.286 38.8562 126.333 38.8557 126.389 38.8546C126.444 38.8534 126.492 38.8501 126.534 38.8444C126.581 38.8388 126.625 38.8304 126.665 38.8191C126.707 38.8079 126.738 38.7916 126.758 38.7702C126.812 38.7151 126.873 38.6313 126.94 38.5189C127.008 38.4053 127.052 38.3204 127.073 38.2641H127.197L127.151 39.0098H124.906V38.8782C124.937 38.8759 124.98 38.8714 125.034 38.8647C125.088 38.8579 125.126 38.8501 125.149 38.8411C125.191 38.8231 125.22 38.8006 125.235 38.7736C125.249 38.7455 125.257 38.71 125.257 38.6673V36.9787C125.257 36.9382 125.25 36.9051 125.238 36.8792C125.226 36.8522 125.196 36.828 125.149 36.8067C125.119 36.7932 125.078 36.7808 125.025 36.7696C124.973 36.7583 124.933 36.751 124.906 36.7476V36.616H127.028V37.2267Z" fill="#656565"/>
<path d="M2.32756 28.2332C2.23903 27.7844 2.13081 27.1423 2.06391 26.3665C1.22439 16.6281 8.92249 9.14814 9.5524 8.55372C11.4661 6.7476 17.1409 2.00167 25.5829 2.00003C35.9673 1.99784 42.3046 9.1759 43.4198 10.4902C44.7958 12.1119 49.3334 17.9025 49.1019 26.3665C48.9217 32.9559 45.9753 37.4828 45.3649 38.3844C41.532 44.0463 36.1711 46.1753 34.3147 46.8191" stroke="#EC1C26" stroke-width="3.93059" stroke-miterlimit="10" stroke-linecap="round" stroke-linejoin="round"/>
<path d="M2.93115 30.8084C2.89904 30.6837 2.88896 30.5619 2.90093 30.4429C2.91369 30.3237 2.94805 30.2139 3.00398 30.1134C3.05873 30.0149 3.13539 29.9287 3.23396 29.8548C3.33332 29.7806 3.44935 29.7264 3.58203 29.6922C3.71391 29.6583 3.84167 29.6497 3.9653 29.6664C4.08994 29.6837 4.20413 29.7233 4.30787 29.7853C4.40959 29.846 4.49716 29.9278 4.57056 30.0308C4.64476 30.1336 4.69863 30.2501 4.73219 30.3803C4.75648 30.4747 4.76702 30.5636 4.76382 30.647C4.76141 30.7303 4.75271 30.8025 4.73773 30.8634L4.82282 30.9208L4.84968 31.0251L4.23142 31.1958L4.20424 31.0903C4.37823 30.9816 4.49878 30.8738 4.56588 30.7671C4.63299 30.6603 4.651 30.5466 4.61991 30.4259C4.58121 30.2756 4.48543 30.1784 4.33257 30.1343C4.18051 30.0899 3.98499 30.0985 3.74601 30.1601C3.61093 30.1949 3.49883 30.2378 3.40971 30.2889C3.32159 30.3405 3.25392 30.3955 3.20669 30.4536C3.15789 30.5156 3.12723 30.5819 3.11472 30.6525C3.10301 30.7228 3.10703 30.7963 3.1268 30.8731C3.15562 30.985 3.21162 31.0766 3.29481 31.1481C3.3782 31.2204 3.4907 31.2766 3.63232 31.3168L3.59654 31.436C3.51735 31.4198 3.44412 31.3969 3.37684 31.3673C3.31037 31.3376 3.24974 31.2991 3.19495 31.2518C3.13473 31.2 3.08234 31.1389 3.0378 31.0686C2.99347 30.999 2.95792 30.9123 2.93115 30.8084Z" fill="#656565"/>
<path d="M5.15523 33.198L5.12222 33.1099C5.17642 33.064 5.22532 33.0016 5.26891 32.9227C5.31251 32.8438 5.32996 32.7751 5.32129 32.7167C5.31801 32.6915 5.30894 32.6579 5.29407 32.6158C5.28027 32.5743 5.2683 32.54 5.25817 32.513L5.16869 32.2742L4.53336 32.5122L4.59678 32.6814C4.61271 32.7239 4.63221 32.7607 4.65529 32.7917C4.67837 32.8227 4.70956 32.8472 4.74888 32.865C4.77331 32.8762 4.81127 32.8822 4.86276 32.8832C4.91454 32.8849 4.95806 32.8823 4.99332 32.8753L5.02634 32.9634L4.34 33.2205L4.30699 33.1324C4.33771 33.1156 4.3738 33.0884 4.41525 33.0508C4.45777 33.0138 4.48512 32.9832 4.4973 32.9593C4.51556 32.9234 4.52321 32.8861 4.52022 32.8476C4.51801 32.8088 4.50837 32.7665 4.49128 32.7209L4.42786 32.5517L3.95369 32.7293C3.90422 32.7479 3.86611 32.7661 3.83934 32.7841C3.81364 32.8025 3.79683 32.8247 3.7889 32.8506C3.78145 32.8754 3.78164 32.9053 3.78945 32.9402C3.79755 32.976 3.81246 33.0228 3.83418 33.0808C3.84432 33.1078 3.85687 33.1402 3.87183 33.1777C3.88679 33.2153 3.90156 33.2477 3.91614 33.2748C3.93217 33.3058 3.94926 33.3338 3.96741 33.3587C3.98585 33.3844 4.00502 33.4015 4.02492 33.4099C4.07669 33.4328 4.14991 33.453 4.24458 33.4704C4.34002 33.4875 4.40981 33.4962 4.45395 33.4964L4.48566 33.581L3.9615 33.7417L3.38336 32.1987L3.47379 32.1648C3.48345 32.1859 3.49754 32.2141 3.51608 32.2495C3.53462 32.2848 3.54987 32.3091 3.56185 32.3222C3.58522 32.347 3.60806 32.3609 3.63037 32.364C3.65346 32.3668 3.67969 32.3627 3.70906 32.3517L4.86957 31.9169C4.8974 31.9065 4.9186 31.8937 4.9332 31.8785C4.94856 31.8631 4.9575 31.8364 4.96003 31.7984C4.96177 31.7749 4.9597 31.7435 4.95382 31.7042C4.94794 31.665 4.94269 31.6357 4.93806 31.6163L5.02848 31.5824L5.57492 33.0407L5.15523 33.198Z" fill="#656565"/>
<path d="M5.37208 36.582L4.93167 35.738L5.01729 35.6933C5.03247 35.717 5.05197 35.7455 5.0758 35.7787C5.10001 35.8126 5.11848 35.8346 5.13121 35.8447C5.15631 35.8661 5.18143 35.8776 5.20656 35.8794C5.2317 35.8812 5.2589 35.8744 5.28817 35.8592L6.45166 35.2522L4.80344 35.4307L4.73128 35.2924C4.75199 35.2732 4.79133 35.2317 4.8493 35.168C4.90765 35.1049 4.95421 35.0541 4.98898 35.0155L5.85358 34.0632L4.90632 34.5573C4.81558 34.6047 4.74949 34.6466 4.70803 34.6831C4.66769 34.72 4.64361 34.7577 4.63578 34.7962C4.62996 34.8225 4.63231 34.8627 4.64284 34.9168C4.65376 34.9716 4.66308 35.0091 4.67081 35.0293L4.5852 35.074L4.23585 34.4045L4.32147 34.3598C4.33321 34.3769 4.35343 34.4041 4.38213 34.4413C4.41194 34.4788 4.44323 34.5057 4.476 34.5221C4.51176 34.5407 4.55646 34.5425 4.6101 34.5276C4.66447 34.5122 4.73666 34.4811 4.82667 34.4341L5.59831 34.0316C5.64514 34.0071 5.68087 33.9811 5.70549 33.9533C5.73085 33.9252 5.74657 33.8946 5.75264 33.8617C5.76006 33.8206 5.75904 33.783 5.74959 33.7488C5.74014 33.7146 5.7283 33.6812 5.71408 33.6486L5.7997 33.604L6.17366 34.3206L5.34562 35.2413L6.34987 35.1293C6.38633 35.1243 6.42845 35.1158 6.47624 35.1039C6.52403 35.092 6.5547 35.083 6.56825 35.0768L6.92847 35.7672L6.84286 35.8119C6.82918 35.7892 6.81346 35.7662 6.79571 35.7429C6.77795 35.7196 6.75931 35.6981 6.73977 35.6785C6.71537 35.655 6.69044 35.6438 6.66499 35.6449C6.63992 35.6469 6.61494 35.6543 6.59006 35.6673L5.48694 36.2428C5.4606 36.2565 5.44057 36.2726 5.42686 36.2909C5.41426 36.3096 5.40882 36.3366 5.41054 36.372C5.41159 36.3901 5.41778 36.4171 5.4291 36.4531C5.44081 36.4898 5.45034 36.5179 5.45769 36.5373L5.37208 36.582Z" fill="#656565"/>
<path d="M7.72798 37.7246L7.6747 37.647C7.71626 37.5894 7.74868 37.5171 7.77197 37.43C7.79526 37.3429 7.79565 37.2721 7.77314 37.2175C7.76388 37.1938 7.74698 37.1633 7.72242 37.1261C7.69902 37.0892 7.67913 37.0588 7.66278 37.0349L7.51838 36.8247L6.95914 37.2088L7.06149 37.3578C7.08719 37.3952 7.11498 37.4262 7.14485 37.4507C7.17472 37.4753 7.21089 37.4915 7.25335 37.4994C7.27975 37.5043 7.31805 37.501 7.36826 37.4895C7.41893 37.4788 7.46053 37.4657 7.49306 37.4504L7.54633 37.5279L6.94219 37.9429L6.88892 37.8653C6.91469 37.8416 6.94317 37.8065 6.97434 37.7601C7.00667 37.7139 7.02586 37.6777 7.0319 37.6515C7.04098 37.6122 7.03942 37.5742 7.02723 37.5375C7.01573 37.5004 6.99619 37.4617 6.96862 37.4216L6.86628 37.2726L6.44889 37.5593C6.40535 37.5892 6.37276 37.6161 6.35111 37.64C6.33061 37.6641 6.31963 37.6896 6.31818 37.7167C6.31693 37.7425 6.32432 37.7715 6.34033 37.8036C6.35681 37.8363 6.38257 37.8782 6.41762 37.9292C6.43398 37.953 6.45394 37.9813 6.47752 38.0142C6.5011 38.0471 6.52324 38.0749 6.54393 38.0978C6.56696 38.124 6.59029 38.147 6.61391 38.1668C6.63801 38.1873 6.66072 38.1993 6.68206 38.2026C6.73783 38.2124 6.81375 38.2143 6.90982 38.2084C7.00657 38.202 7.0764 38.1936 7.11929 38.1832L7.17046 38.2577L6.70047 38.5399L5.76749 37.1818L5.84709 37.1271C5.86153 37.1452 5.88201 37.1692 5.90852 37.199C5.93504 37.2289 5.95569 37.2487 5.97048 37.2586C5.99912 37.277 6.02464 37.285 6.04705 37.2826C6.07013 37.2798 6.0946 37.2695 6.12045 37.2517L7.14197 36.5501C7.16647 36.5333 7.18397 36.5158 7.19447 36.4975C7.20566 36.4788 7.2079 36.4508 7.2012 36.4133C7.19722 36.39 7.18764 36.36 7.17248 36.3234C7.15732 36.2868 7.14516 36.2596 7.13598 36.2418L7.21558 36.1872L8.0974 37.4708L7.72798 37.7246Z" fill="#656565"/>
<path d="M8.57661 40.7745L7.95807 40.0638L8.03091 40.0004C8.0457 40.0149 8.06735 40.036 8.09585 40.0637C8.12497 40.0909 8.1469 40.1079 8.16163 40.1148C8.19102 40.1297 8.21698 40.135 8.23951 40.1307C8.26266 40.1259 8.28606 40.1132 8.30972 40.0926L9.08391 39.4189L7.82571 39.4668C7.78275 39.5042 7.75794 39.5329 7.75129 39.5529C7.74518 39.5735 7.74686 39.5999 7.75632 39.6322C7.7621 39.6501 7.77438 39.6756 7.79316 39.7084C7.81256 39.7408 7.8295 39.7665 7.84397 39.7857L7.77112 39.8491L7.15502 39.1413L7.22786 39.0779C7.24203 39.0929 7.26368 39.114 7.2928 39.1411C7.32309 39.1684 7.34668 39.1867 7.36358 39.1961C7.39118 39.2114 7.41687 39.2164 7.44064 39.2111C7.46504 39.2052 7.48845 39.1924 7.51086 39.1729L8.44848 38.357C8.47027 38.338 8.48511 38.318 8.49301 38.2969C8.50145 38.2764 8.50071 38.2491 8.49078 38.2151C8.48316 38.19 8.46973 38.1601 8.45049 38.1255C8.43187 38.0902 8.41749 38.0655 8.40736 38.0514L8.4802 37.988L9.09874 38.6986L9.0259 38.762C9.00786 38.7438 8.98469 38.7235 8.95641 38.701C8.92813 38.6786 8.90558 38.6621 8.88876 38.6516C8.85953 38.6344 8.83237 38.6296 8.80727 38.6372C8.78334 38.6449 8.76141 38.6574 8.74148 38.6747L7.98317 39.3347L9.24137 39.2867C9.27375 39.2586 9.29241 39.2341 9.29736 39.2134C9.30292 39.1922 9.30121 39.1663 9.2922 39.1358C9.2852 39.1102 9.27313 39.0819 9.25597 39.0508C9.23936 39.0204 9.22498 38.9958 9.21284 38.9768L9.28569 38.9134L9.90179 39.6212L9.82895 39.6846C9.81036 39.6658 9.78805 39.6458 9.76202 39.6247C9.73661 39.603 9.71212 39.585 9.68856 39.5704C9.65987 39.5538 9.63329 39.5491 9.60881 39.5561C9.58434 39.5632 9.56183 39.5757 9.54128 39.5936L8.60273 40.4104C8.58031 40.4299 8.56485 40.4504 8.55633 40.4721C8.54781 40.4937 8.54855 40.521 8.55856 40.5538C8.56534 40.5742 8.57843 40.6006 8.59783 40.6329C8.61778 40.6659 8.63498 40.6919 8.64945 40.7111L8.57661 40.7745ZM9.86884 38.9573C9.84954 38.9741 9.81965 38.9875 9.77917 38.9976C9.73923 39.0083 9.69653 39.0083 9.65105 38.9975C9.59751 38.985 9.54268 38.9616 9.48656 38.9273C9.4316 38.8931 9.36808 38.8346 9.29601 38.7518C9.22991 38.6758 9.18211 38.6058 9.15261 38.5418C9.12375 38.4772 9.10728 38.4193 9.10323 38.3681C9.09909 38.3181 9.1044 38.2752 9.11917 38.2394C9.13448 38.2042 9.15272 38.1773 9.17389 38.1589C9.20564 38.1313 9.24128 38.1194 9.28079 38.1233C9.3203 38.1272 9.35495 38.1463 9.38476 38.1806C9.41727 38.2179 9.43506 38.2566 9.43814 38.2966C9.44238 38.3366 9.42863 38.3705 9.39688 38.3981C9.37944 38.4133 9.35488 38.4259 9.32317 38.436C9.29263 38.4462 9.26994 38.4528 9.2551 38.4559C9.25872 38.4965 9.27053 38.5371 9.29053 38.5777C9.3117 38.6183 9.33719 38.6558 9.36699 38.69C9.39571 38.723 9.42843 38.7531 9.46516 38.7802C9.5019 38.8073 9.54215 38.8259 9.58591 38.8359C9.59232 38.8194 9.60267 38.7967 9.61695 38.7679C9.63186 38.7385 9.6471 38.717 9.66266 38.7035C9.69379 38.6764 9.72949 38.6677 9.76976 38.6776C9.81004 38.6874 9.84534 38.7097 9.87569 38.7446C9.90603 38.7794 9.92073 38.8164 9.91977 38.8556C9.91881 38.8947 9.90183 38.9286 9.86884 38.9573Z" fill="#656565"/>
<path d="M10.6881 42.7168L9.98108 42.0829L10.0455 42.011C10.062 42.0236 10.0861 42.0418 10.1178 42.0658C10.1495 42.0898 10.1731 42.1043 10.1885 42.1093C10.2196 42.1205 10.246 42.1226 10.2678 42.1155C10.2902 42.1079 10.3118 42.0924 10.3328 42.069L10.7369 41.6183L10.1783 41.1175L9.78327 41.5581C9.76454 41.579 9.75203 41.6016 9.74576 41.6259C9.7401 41.6507 9.74389 41.6774 9.75713 41.7059C9.7644 41.7213 9.77969 41.7444 9.803 41.7753C9.8263 41.8061 9.84632 41.8302 9.86304 41.8474L9.79857 41.9193L9.09157 41.2854L9.15604 41.2135C9.17196 41.2267 9.19604 41.2449 9.22829 41.2683C9.26171 41.2916 9.28738 41.3069 9.30531 41.3141C9.33459 41.3259 9.3607 41.3277 9.38363 41.3195C9.40711 41.3106 9.42877 41.2951 9.44861 41.273L10.2784 40.3476C10.2977 40.3261 10.31 40.3044 10.3152 40.2825C10.3211 40.2611 10.317 40.2342 10.3029 40.2016C10.2923 40.1777 10.2752 40.1497 10.2519 40.1176C10.229 40.085 10.2117 40.0622 10.1999 40.0494L10.2644 39.9775L10.9714 40.6114L10.9069 40.6833C10.8868 40.6675 10.8613 40.6502 10.8305 40.6314C10.7996 40.6126 10.7752 40.599 10.7572 40.5907C10.7261 40.5772 10.6985 40.5757 10.6746 40.5864C10.6518 40.597 10.6316 40.6121 10.6139 40.6318L10.2635 41.0226L10.8221 41.5234L11.1642 41.1418C11.1835 41.1203 11.1958 41.0986 11.201 41.0767C11.2063 41.0548 11.2019 41.0276 11.1878 40.995C11.1784 40.9733 11.163 40.9473 11.1415 40.9169C11.1211 40.8864 11.1038 40.8631 11.0894 40.847L11.1539 40.7751L11.8609 41.4089L11.7964 41.4808C11.7757 41.4644 11.7511 41.4474 11.7226 41.4296C11.6947 41.4113 11.6682 41.3964 11.643 41.3849C11.6125 41.3719 11.5856 41.3705 11.5621 41.3805C11.5387 41.3905 11.5179 41.4057 11.4997 41.426L10.6691 42.3523C10.6493 42.3744 10.6364 42.3967 10.6307 42.4192C10.6249 42.4418 10.629 42.4687 10.6429 42.5001C10.6522 42.5195 10.6684 42.544 10.6917 42.5737C10.7155 42.604 10.7358 42.6277 10.7525 42.6449L10.6881 42.7168Z" fill="#656565"/>
<path d="M12.5636 43.447C12.6352 43.342 12.6608 43.2421 12.6405 43.1473C12.6206 43.0519 12.5541 42.9656 12.4409 42.8884C12.4273 42.8791 12.4091 42.8677 12.3863 42.8542C12.364 42.84 12.3492 42.831 12.3419 42.827L11.9626 43.3835C11.9506 43.4143 11.9545 43.4489 11.9743 43.4873C11.9945 43.5251 12.0271 43.5593 12.0721 43.5899C12.154 43.6457 12.2389 43.6611 12.3268 43.6361C12.4154 43.6116 12.4944 43.5486 12.5636 43.447ZM12.9775 43.708C12.9282 43.7803 12.8688 43.8337 12.7993 43.8683C12.7298 43.9028 12.6553 43.9199 12.5756 43.9196C12.4994 43.9186 12.4234 43.9047 12.3477 43.8781C12.2726 43.8519 12.201 43.8156 12.1328 43.7691L11.2612 43.1751L11.3155 43.0953C11.3367 43.1068 11.3648 43.1219 11.3999 43.1408C11.4354 43.159 11.4615 43.1698 11.4782 43.1732C11.5093 43.1804 11.5354 43.1787 11.5565 43.1682C11.5777 43.1576 11.5974 43.1391 11.6155 43.1125L12.3134 42.0885C12.3292 42.0653 12.3385 42.0422 12.3413 42.0191C12.3452 41.9958 12.3378 41.9692 12.3191 41.9395C12.3056 41.9183 12.2854 41.8936 12.2587 41.8654C12.232 41.8372 12.2111 41.8165 12.1962 41.8033L12.2505 41.7235L13.0495 42.268L12.9952 42.3478C12.9731 42.3348 12.9447 42.32 12.9101 42.3033C12.8759 42.2861 12.846 42.2736 12.8202 42.266C12.7882 42.2572 12.7613 42.2594 12.7394 42.2724C12.7175 42.2855 12.6989 42.3032 12.6836 42.3258L12.411 42.7257C12.4428 42.7464 12.4779 42.7689 12.5164 42.7931C12.556 42.8171 12.5935 42.8411 12.629 42.8653C12.7156 42.9243 12.7923 42.9876 12.8592 43.0551C12.9267 43.1231 12.9775 43.1922 13.0116 43.2624C13.0461 43.3348 13.062 43.4081 13.0595 43.4823C13.0573 43.5557 13.03 43.631 12.9775 43.708ZM13.4321 44.6545L12.6576 44.1268L12.712 44.047C12.732 44.0586 12.7566 44.0724 12.7858 44.0882C12.8156 44.1046 12.8392 44.1147 12.8565 44.1185C12.8887 44.1255 12.9152 44.124 12.9359 44.1142C12.9571 44.1036 12.9765 44.0854 12.9941 44.0595L13.6956 43.0304C13.7118 43.0065 13.7211 42.9834 13.7234 42.961C13.7257 42.9385 13.7177 42.9121 13.6995 42.8817C13.6873 42.8615 13.6686 42.8377 13.6432 42.8104C13.619 42.7829 13.5987 42.7621 13.5824 42.748L13.6368 42.6682L14.4215 43.2029L14.3671 43.2827C14.3443 43.2692 14.3177 43.2556 14.2871 43.2417C14.2571 43.2272 14.2288 43.216 14.2023 43.2079C14.1704 43.1991 14.1434 43.2012 14.1216 43.2143C14.0997 43.2274 14.0811 43.2451 14.0657 43.2676L13.365 44.2957C13.3483 44.3203 13.3385 44.3441 13.3358 44.3672C13.333 44.3903 13.3406 44.4164 13.3587 44.4457C13.3704 44.4637 13.3897 44.4858 13.4167 44.5122C13.4444 44.5391 13.4676 44.5599 13.4865 44.5747L13.4321 44.6545Z" fill="#656565"/>
<path d="M16.0359 44.5311L15.9522 44.488C15.9616 44.4176 15.9559 44.3386 15.9352 44.2508C15.9145 44.1631 15.8813 44.1005 15.8356 44.063C15.8162 44.0466 15.7869 44.0278 15.7477 44.0066C15.7096 43.9851 15.6777 43.9677 15.652 43.9545L15.4253 43.8377L15.1145 44.4407L15.2751 44.5235C15.3155 44.5443 15.3546 44.5584 15.3926 44.5659C15.4305 44.5734 15.47 44.5705 15.5112 44.5574C15.5367 44.5492 15.5689 44.5282 15.6077 44.4943C15.6473 44.4609 15.6777 44.4297 15.6991 44.4008L15.7828 44.4439L15.447 45.0953L15.3634 45.0522C15.3748 45.0191 15.3833 44.9747 15.3888 44.9191C15.3954 44.8631 15.3952 44.8221 15.3881 44.7962C15.3775 44.7573 15.3581 44.7246 15.33 44.698C15.3023 44.6707 15.2668 44.6459 15.2235 44.6236L15.0629 44.5408L14.8309 44.9909C14.8067 45.0378 14.7907 45.0769 14.7829 45.1082C14.7763 45.1391 14.7787 45.1669 14.7902 45.1914C14.8014 45.2147 14.8216 45.2368 14.8509 45.2574C14.8809 45.2785 14.9234 45.3032 14.9784 45.3315C15.0041 45.3448 15.0351 45.3603 15.0714 45.3781C15.1078 45.3959 15.1404 45.4099 15.1695 45.4202C15.2022 45.4324 15.2336 45.4417 15.2638 45.448C15.2948 45.4546 15.3204 45.4544 15.3408 45.4472C15.3946 45.4294 15.4623 45.3952 15.5442 45.3445C15.6264 45.2931 15.6839 45.2527 15.7168 45.2232L15.7971 45.2646L15.5167 45.7356L14.0519 44.9808L14.0962 44.895C14.1175 44.9041 14.1469 44.9155 14.1843 44.9293C14.2218 44.943 14.2494 44.9507 14.2671 44.9524C14.301 44.955 14.3273 44.95 14.3459 44.9373C14.3649 44.9239 14.3816 44.9032 14.396 44.8754L14.9637 43.7739C14.9773 43.7475 14.9845 43.7238 14.9851 43.7027C14.9861 43.681 14.9748 43.6552 14.9511 43.6253C14.9366 43.6067 14.914 43.5848 14.8833 43.5597C14.8526 43.5346 14.829 43.5164 14.8125 43.5052L14.8568 43.4193L16.2412 44.1328L16.0359 44.5311Z" fill="#656565"/>
<path d="M19.2131 47.1147L18.5732 46.9047C18.5722 46.8149 18.5713 46.7251 18.5704 46.6353C18.5694 46.5456 18.565 46.4611 18.5571 46.3821C18.5519 46.3239 18.5441 46.2736 18.5337 46.2311C18.5244 46.1881 18.5081 46.1489 18.485 46.1135C18.4634 46.0786 18.4334 46.0483 18.3949 46.0227C18.3575 45.9965 18.3101 45.974 18.2529 45.9552L18.0834 46.4716C18.0746 46.4982 18.0722 46.5239 18.0763 46.5487C18.0811 46.5737 18.0953 46.5967 18.1189 46.6174C18.1317 46.6286 18.155 46.6436 18.1888 46.6625C18.2225 46.6814 18.2505 46.6954 18.2727 46.7044L18.2426 46.7962L17.3404 46.5L17.3705 46.4083C17.3904 46.4139 17.4198 46.421 17.4587 46.4294C17.4987 46.4373 17.5283 46.4409 17.5476 46.4403C17.5792 46.4394 17.6038 46.4306 17.6215 46.4138C17.6394 46.3962 17.653 46.3733 17.6623 46.3451L18.05 45.1642C18.059 45.1367 18.0615 45.1119 18.0575 45.0898C18.0543 45.0679 18.0397 45.0448 18.0137 45.0207C17.9943 45.003 17.9675 44.9842 17.9332 44.9643C17.8992 44.9436 17.8742 44.9297 17.8582 44.9227L17.8884 44.831L18.7906 45.1271L18.7605 45.2189C18.7356 45.2125 18.7053 45.2069 18.6695 45.2021C18.6338 45.1973 18.606 45.1947 18.5861 45.1942C18.5522 45.1944 18.5264 45.2042 18.5087 45.2236C18.4921 45.2424 18.4797 45.2644 18.4714 45.2895L18.2892 45.8447L18.3656 45.8698C18.397 45.8801 18.431 45.8864 18.4675 45.8889C18.5051 45.8908 18.5421 45.8825 18.5786 45.8641C18.6533 45.8269 18.7141 45.7848 18.7609 45.7376C18.8079 45.6896 18.8514 45.6392 18.8913 45.5863C18.9365 45.5281 18.9759 45.4794 19.0097 45.4401C19.0437 45.4 19.0974 45.3621 19.1709 45.3262C19.2073 45.3078 19.2481 45.2973 19.2933 45.2948C19.3387 45.2914 19.3853 45.2976 19.4331 45.3133C19.5115 45.339 19.5669 45.3794 19.5993 45.4343C19.6316 45.4892 19.6376 45.5476 19.6173 45.6096C19.5949 45.6778 19.5582 45.7248 19.5071 45.7506C19.4564 45.7757 19.4012 45.7784 19.3416 45.7588C19.3039 45.7465 19.2707 45.7234 19.2418 45.6896C19.2137 45.6561 19.1853 45.5998 19.1565 45.5209C19.125 45.5375 19.0918 45.5683 19.0571 45.6133C19.0233 45.6578 18.9928 45.6965 18.9656 45.7292C18.9095 45.7968 18.8603 45.8462 18.8179 45.8775C18.7757 45.9079 18.7315 45.9303 18.6851 45.9446L18.6781 45.9658C18.7784 46.0309 18.8536 46.1085 18.9039 46.1989C18.9542 46.2892 18.9859 46.3895 18.9992 46.4999C19.0052 46.5479 19.0107 46.5987 19.0156 46.6525C19.0216 46.7057 19.027 46.7513 19.0319 46.7894C19.0395 46.8484 19.0519 46.8898 19.0693 46.9137C19.0874 46.9379 19.1035 46.9536 19.1176 46.9609C19.1344 46.9707 19.155 46.9819 19.1796 46.9943C19.2053 47.0062 19.2265 47.0157 19.2432 47.023L19.2131 47.1147Z" fill="#656565"/>
<path d="M20.6958 45.7973C20.6753 45.7821 20.6433 45.7661 20.5995 45.7494C20.556 45.7319 20.528 45.7206 20.5155 45.7155L20.5352 45.6209L22.0757 45.9419L22.056 46.0364C22.0298 46.0327 22 46.0302 21.9665 46.0292C21.9331 46.0273 21.9027 46.0277 21.8752 46.0304C21.8423 46.0345 21.8182 46.0468 21.803 46.0672C21.7878 46.0876 21.7774 46.1112 21.7718 46.1378L21.518 47.3558C21.5119 47.3849 21.5121 47.4106 21.5183 47.433C21.5246 47.4554 21.5417 47.4766 21.5696 47.4968C21.5873 47.5089 21.6136 47.522 21.6486 47.536C21.6845 47.5502 21.7139 47.5606 21.737 47.5671L21.7173 47.6616L20.7816 47.4666L20.8013 47.3721C20.8235 47.375 20.8543 47.3789 20.8938 47.3838C20.934 47.3888 20.9629 47.3898 20.9804 47.3867C21.0128 47.3808 21.0367 47.3693 21.0521 47.3523C21.0676 47.3344 21.0786 47.3102 21.085 47.2795L21.3688 45.9173L20.958 45.8317C20.887 46.1195 20.806 46.3627 20.7149 46.5612C20.6238 46.7598 20.5316 46.9167 20.4384 47.0322C20.3383 47.1564 20.2438 47.2399 20.1547 47.2829C20.0657 47.3259 19.9864 47.3401 19.9169 47.3257C19.8628 47.3144 19.8203 47.2975 19.7896 47.2751C19.7587 47.2535 19.7363 47.2294 19.7224 47.2029C19.7078 47.1763 19.7001 47.1481 19.6996 47.1185C19.6992 47.0881 19.7014 47.0611 19.7063 47.0377C19.7225 46.9602 19.7586 46.9061 19.8147 46.8757C19.8709 46.8444 19.9306 46.8353 19.9936 46.8485C20.0372 46.8576 20.0766 46.8809 20.1118 46.9186C20.1477 46.9565 20.181 47.003 20.2117 47.0583C20.2515 47.0169 20.297 46.9602 20.3483 46.8882C20.4005 46.8157 20.4495 46.7361 20.4954 46.6495C20.5476 46.5525 20.5933 46.455 20.6323 46.3569C20.6714 46.258 20.704 46.1463 20.7299 46.0219C20.741 45.9686 20.7453 45.9235 20.7429 45.8868C20.7412 45.8502 20.7255 45.8203 20.6958 45.7973Z" fill="#656565"/>
<path d="M24.3334 47.9446L23.3809 47.8519L23.3902 47.7558C23.4349 47.7568 23.4878 47.7541 23.549 47.7476C23.6103 47.7403 23.6418 47.7272 23.6436 47.7083C23.6443 47.7017 23.6442 47.6942 23.6433 47.6859C23.6433 47.6776 23.6411 47.6662 23.6367 47.6516L23.5229 47.2749L22.9191 47.2161C22.9019 47.2484 22.8824 47.2863 22.8608 47.3298C22.8399 47.3734 22.8216 47.4123 22.8059 47.4464C22.7858 47.4909 22.7731 47.5232 22.7678 47.5434C22.7633 47.5637 22.7607 47.578 22.7599 47.5862C22.7574 47.6125 22.7749 47.637 22.8125 47.6597C22.851 47.6817 22.9162 47.7013 23.0082 47.7186L22.9989 47.8147L22.2817 47.7449L22.2911 47.6488C22.3184 47.6498 22.3492 47.6486 22.3835 47.6453C22.4187 47.6413 22.4468 47.6341 22.4677 47.6237C22.5033 47.6072 22.534 47.5858 22.5598 47.5592C22.5864 47.5328 22.6094 47.5006 22.6289 47.4627C22.7467 47.2412 22.8645 47.0192 22.9823 46.7969C23.101 46.5746 23.2318 46.3295 23.3748 46.0615L23.6213 46.0855C23.7438 46.497 23.8394 46.8223 23.9082 47.0611C23.977 47.3 24.036 47.4981 24.0854 47.6555C24.0937 47.6812 24.105 47.7051 24.1195 47.7272C24.134 47.7486 24.1555 47.7697 24.1842 47.7908C24.2059 47.8061 24.2316 47.8186 24.2614 47.8281C24.2911 47.8377 24.3183 47.8444 24.3427 47.8485L24.3334 47.9446ZM23.4842 47.148L23.2921 46.49L22.9803 47.0989L23.4842 47.148Z" fill="#656565"/>
<path d="M25.8272 47.9999C25.6984 48.0004 25.5778 47.9801 25.4655 47.9392C25.3531 47.8975 25.255 47.8372 25.1714 47.7583C25.0894 47.681 25.0247 47.5855 24.9773 47.4717C24.9299 47.3572 24.9059 47.2314 24.9055 47.0944C24.905 46.9582 24.9281 46.8323 24.9747 46.7166C25.0222 46.6001 25.0887 46.4991 25.1743 46.4139C25.2582 46.3302 25.3591 46.2655 25.4769 46.2197C25.5948 46.1731 25.721 46.1495 25.8555 46.1491C25.9529 46.1488 26.0417 46.1604 26.1218 46.1841C26.202 46.2069 26.2698 46.2331 26.3252 46.2626L26.4017 46.1943L26.5094 46.1939L26.5227 46.8351L26.4138 46.8355C26.3512 46.6401 26.2764 46.4968 26.1895 46.4054C26.1025 46.3141 25.9967 46.2687 25.872 46.2691C25.7169 46.2696 25.5991 46.3385 25.5187 46.4758C25.4382 46.6123 25.3984 46.8039 25.3993 47.0506C25.3998 47.1901 25.4138 47.3093 25.4414 47.4083C25.4698 47.5064 25.5063 47.5855 25.5511 47.6456C25.5992 47.7081 25.6559 47.7541 25.7212 47.7836C25.7865 47.8123 25.8588 47.8265 25.938 47.8262C26.0536 47.8258 26.1562 47.7941 26.246 47.7311C26.3365 47.6681 26.4188 47.5729 26.4926 47.4455L26.5993 47.5095C26.5641 47.5823 26.5238 47.6476 26.4786 47.7055C26.4334 47.7626 26.3812 47.8119 26.3219 47.8534C26.2569 47.899 26.1848 47.9347 26.1056 47.9606C26.0273 47.9864 25.9345 47.9995 25.8272 47.9999Z" fill="#656565"/>
<path d="M28.2034 47.8594C28.0754 47.8726 27.9534 47.8645 27.8375 47.835C27.7215 47.8046 27.618 47.7543 27.5269 47.6841C27.4377 47.6153 27.3638 47.5267 27.3053 47.4182C27.2467 47.3089 27.2104 47.1862 27.1963 47.0499C27.1824 46.9144 27.1928 46.7868 27.2278 46.6671C27.2634 46.5464 27.3196 46.4394 27.3962 46.346C27.4714 46.2545 27.5654 46.18 27.6781 46.1228C27.7908 46.0647 27.914 46.0287 28.0478 46.0149C28.1447 46.0049 28.2342 46.0077 28.3163 46.0233C28.3983 46.038 28.4684 46.0574 28.5264 46.0812L28.5958 46.0056L28.7029 45.9946L28.7799 46.6313L28.6715 46.6425C28.5898 46.4543 28.5012 46.3191 28.4056 46.2368C28.31 46.1546 28.2002 46.1199 28.0762 46.1327C27.9218 46.1486 27.8115 46.2289 27.7451 46.3735C27.6786 46.5172 27.658 46.7118 27.6834 46.9573C27.6977 47.096 27.7235 47.2133 27.7608 47.309C27.7988 47.4038 27.843 47.4789 27.8935 47.5342C27.9476 47.5917 28.0086 47.6319 28.0765 47.6547C28.1443 47.6768 28.2177 47.6837 28.2965 47.6756C28.4114 47.6637 28.5104 47.622 28.5935 47.5503C28.6773 47.4786 28.7497 47.3757 28.8105 47.2417L28.923 47.2948C28.8952 47.3707 28.8617 47.4397 28.8224 47.5018C28.7831 47.5631 28.736 47.6173 28.6812 47.6645C28.621 47.7163 28.5528 47.759 28.4766 47.7926C28.4012 47.8261 28.3102 47.8484 28.2034 47.8594Z" fill="#656565"/>
<path d="M30.7445 46.8702C30.7163 46.7462 30.6605 46.6595 30.5773 46.6099C30.4939 46.5595 30.3853 46.5495 30.2518 46.5799C30.2357 46.5836 30.2149 46.5892 30.1895 46.5966C30.164 46.6033 30.1472 46.608 30.1394 46.6106L30.289 47.2672C30.3034 47.2969 30.3314 47.3177 30.373 47.3293C30.4144 47.3402 30.4617 47.3396 30.5148 47.3275C30.6113 47.3055 30.6804 47.2538 30.722 47.1724C30.7643 47.0908 30.7718 46.9901 30.7445 46.8702ZM31.2175 46.7447C31.2369 46.83 31.2356 46.9098 31.2137 46.9842C31.1917 47.0586 31.1534 47.1249 31.099 47.183C31.0463 47.2382 30.9845 47.2844 30.9134 47.3218C30.8432 47.3589 30.7678 47.3867 30.6873 47.405L29.6589 47.6393L29.6374 47.5451C29.6602 47.5374 29.6904 47.5271 29.7282 47.5143C29.7657 47.5007 29.7914 47.4889 29.8052 47.479C29.8316 47.4611 29.8481 47.4408 29.8548 47.4182C29.8615 47.3955 29.8613 47.3685 29.8541 47.3371L29.5789 46.1288C29.5726 46.1015 29.562 46.0789 29.5469 46.0612C29.5325 46.0425 29.5081 46.0299 29.4736 46.0233C29.4488 46.0188 29.417 46.0167 29.3782 46.0171C29.3393 46.0175 29.31 46.0187 29.2901 46.0207L29.2687 45.9265L30.2114 45.7118L30.2329 45.8059C30.2083 45.8132 30.1781 45.8239 30.1424 45.838C30.1065 45.8512 30.077 45.8647 30.0538 45.8784C30.0257 45.8959 30.0089 45.917 30.0036 45.942C29.9982 45.9669 29.9986 45.9926 30.0046 46.0192L30.1122 46.4911C30.149 46.4819 30.1894 46.4714 30.2333 46.4597C30.2778 46.447 30.321 46.4359 30.3628 46.4264C30.465 46.4031 30.5636 46.39 30.6586 46.387C30.7543 46.3838 30.8395 46.3936 30.9141 46.4164C30.9907 46.4404 31.0553 46.4786 31.1078 46.5309C31.1602 46.5825 31.1968 46.6537 31.2175 46.7447ZM32.2204 47.0558L31.3066 47.264L31.2851 47.1698C31.3073 47.1631 31.3341 47.1544 31.3656 47.1439C31.3978 47.1331 31.4213 47.1227 31.4359 47.1126C31.4629 47.0938 31.4799 47.0734 31.4868 47.0515C31.4934 47.0288 31.4933 47.0022 31.4863 46.9716L31.2097 45.7574C31.2033 45.7292 31.1926 45.7067 31.1778 45.6897C31.1629 45.6728 31.1381 45.6607 31.1035 45.6533C31.0803 45.6484 31.0501 45.646 31.0129 45.646C30.9763 45.6451 30.9472 45.6458 30.9258 45.6481L30.9043 45.554L31.8302 45.3431L31.8516 45.4372C31.8263 45.4447 31.7981 45.4549 31.7672 45.4679C31.7361 45.48 31.7086 45.4931 31.6847 45.507C31.6565 45.5244 31.6397 45.5456 31.6344 45.5705C31.6291 45.5954 31.6294 45.6211 31.6355 45.6477L31.9118 46.8607C31.9184 46.8897 31.9293 46.9131 31.9443 46.9308C31.9593 46.9485 31.9837 46.9608 32.0174 46.9675C32.0386 46.9711 32.068 46.972 32.1057 46.9702C32.1441 46.9682 32.1752 46.9654 32.1989 46.9617L32.2204 47.0558Z" fill="#656565"/>
<path d="M58.1177 14.2531C58.1177 14.6932 57.9729 15.0775 57.6833 15.4055C57.3938 15.7337 57.0365 15.8977 56.612 15.8977C56.2183 15.8977 55.8765 15.7414 55.587 15.4286C55.2974 15.1159 55.1527 14.759 55.1527 14.3573C55.1527 13.9327 55.2974 13.5621 55.587 13.2455C55.8765 12.9289 56.2183 12.7706 56.612 12.7706C57.0521 12.7706 57.4128 12.9193 57.6949 13.2165C57.9766 13.5139 58.1177 13.8593 58.1177 14.2531ZM59.5653 30.3171H54.0525V29.5527C54.2299 29.5374 54.4132 29.5218 54.6026 29.5064C54.7916 29.491 54.9558 29.4603 55.0948 29.4139C55.3108 29.3445 55.4712 29.2232 55.5754 29.0496C55.6796 28.876 55.7318 28.6504 55.7318 28.3727V21.3277C55.7318 21.0809 55.6755 20.8555 55.5639 20.6511C55.4517 20.4467 55.2955 20.2751 55.0948 20.1363C54.948 20.0438 54.7358 19.9648 54.4578 19.8992C54.1798 19.8336 53.925 19.7932 53.6934 19.7776V19.0132L57.7239 18.7584L57.8861 18.9206V28.2323C57.8861 28.5026 57.9378 28.7266 58.0413 28.9041C58.1446 29.0817 58.3077 29.2131 58.5299 29.2979C58.6988 29.3674 58.8637 29.4235 59.0244 29.4659C59.1856 29.5084 59.3657 29.5374 59.5653 29.5527V30.3171Z" fill="#3572C1"/>
<path d="M81.2521 17.1577C80.7157 15.9593 79.9714 14.9373 79.0219 14.0891C78.0998 13.2587 77.008 12.6157 75.7438 12.1561C74.4795 11.6978 73.1333 11.4693 71.7076 11.4693C70.3312 11.4693 69.0136 11.6937 67.7549 12.1438C66.4948 12.5939 65.3893 13.2423 64.4398 14.0891C63.478 14.9455 62.7241 15.9593 62.1782 17.1317C61.6323 18.3028 61.3586 19.6366 61.3586 21.1333C61.3586 22.5 61.6186 23.7818 62.1399 24.9789C62.6612 26.1773 63.3767 27.1951 64.2879 28.0338C65.1978 28.8902 66.2882 29.5578 67.5579 30.038C68.8276 30.5182 70.2094 30.7576 71.7076 30.7576C72.7255 30.7576 73.7024 30.6399 74.6369 30.4032C74.5767 30.0133 74.4836 29.5838 74.2757 29.1186C73.4986 29.4429 72.6434 29.6029 71.7076 29.6029C70.5542 29.6029 69.5623 29.3895 68.7332 28.9613C67.904 28.5331 67.2158 27.9394 66.6699 27.1774C66.1035 26.4003 65.689 25.5097 65.4263 24.5055C65.1622 23.5028 65.0309 22.3782 65.0309 21.1333C65.0309 20.0087 65.1554 18.9362 65.403 17.9156C65.6506 16.8964 66.0269 16.0058 66.5331 15.2438C67.0694 14.4489 67.7618 13.8128 68.6114 13.3367C69.461 12.862 70.494 12.624 71.7076 12.624C72.7898 12.624 73.7503 12.8292 74.5904 13.2396C75.4304 13.65 76.1282 14.2232 76.6837 14.9592C77.2405 15.7021 77.6633 16.6023 77.9506 17.657C78.2393 18.7118 78.3843 19.8706 78.3843 21.1333C78.3843 22.3618 78.2544 23.4727 77.9972 24.4672C77.9575 24.6205 77.9137 24.7709 77.8658 24.9201C78.4268 25.455 79.1122 25.942 79.9838 26.2991C80.152 26.3688 80.3135 26.4277 80.4667 26.4769C80.7582 26.0528 81.014 25.5986 81.2356 25.1157C81.7829 23.9214 82.0566 22.5944 82.0566 21.1333C82.0566 19.6804 81.787 18.3547 81.2521 17.1577Z" fill="#3572C1"/>
<path d="M106.221 30.3171H99.0002V29.5848C99.2131 29.566 99.4746 29.5348 99.7843 29.4909C100.094 29.4471 100.305 29.4002 100.418 29.3501C100.65 29.2561 100.815 29.128 100.916 28.9652C101.016 28.8025 101.066 28.5959 101.066 28.3456V18.3938L96.4839 30.1012H95.3008C95.2444 29.8946 95.1051 29.4848 94.8831 28.8713C94.6608 28.258 94.4808 27.7666 94.3431 27.3972L90.9723 18.2436V26.3457C90.9723 27.122 91.0241 27.7117 91.1274 28.1155C91.2307 28.5192 91.3978 28.8149 91.6295 29.0026C91.7862 29.1341 92.0664 29.2594 92.4702 29.3782C92.8738 29.4973 93.157 29.566 93.3197 29.5848V30.3171H87.5922V29.5848C87.7488 29.566 88.0037 29.5237 88.3575 29.4581C88.7109 29.3923 89.0006 29.2782 89.2259 29.1154C89.4764 28.9401 89.6454 28.6445 89.733 28.2282C89.8204 27.812 89.8643 27.2188 89.8643 26.449V19.849C89.8643 19.4484 89.8144 19.1151 89.7141 18.8491C89.6138 18.5832 89.4636 18.372 89.2634 18.2154C89.0129 18.0214 88.7565 17.8962 88.4935 17.8398C88.2306 17.7835 87.9647 17.746 87.6955 17.7271V16.9949H93.8349L97.119 25.7725L99.8872 18.6489C99.9808 18.3857 100.072 18.0724 100.159 17.7092C100.247 17.3458 100.294 17.1077 100.3 16.9949H106.202V17.7271C106.002 17.7397 105.792 17.7647 105.573 17.8022C105.354 17.8398 105.144 17.8899 104.944 17.9524C104.7 18.034 104.538 18.1623 104.46 18.3374C104.382 18.5128 104.343 18.7068 104.343 18.9195V28.3549C104.343 28.5802 104.382 28.7697 104.46 28.9229C104.538 29.0762 104.7 29.2092 104.944 29.322C105.069 29.3782 105.274 29.4315 105.559 29.4815C105.843 29.5317 106.064 29.566 106.221 29.5848V30.3171Z" fill="#3572C1"/>
<path d="M124.013 30.3171H116.868V29.5848C117.024 29.5724 117.253 29.5519 117.553 29.5237C117.854 29.4956 118.06 29.4566 118.173 29.4064C118.405 29.3125 118.564 29.189 118.652 29.0356C118.739 28.8824 118.783 28.6866 118.783 28.4487V20.6657L112.793 28.1014C112.793 28.5333 112.835 28.8181 112.92 28.9557C113.004 29.0936 113.162 29.2157 113.394 29.322C113.525 29.3782 113.732 29.433 114.014 29.4863C114.295 29.5395 114.527 29.5724 114.708 29.5848V30.3171H107.591V29.5848C107.748 29.5786 107.978 29.5584 108.281 29.5237C108.585 29.4894 108.806 29.4471 108.943 29.3971C109.169 29.3157 109.325 29.1921 109.413 29.0262C109.5 28.8604 109.544 28.6647 109.544 28.4394V19.0134C109.544 18.7945 109.505 18.6096 109.427 18.4594C109.349 18.3092 109.187 18.1777 108.943 18.0652C108.762 17.9839 108.524 17.9103 108.23 17.8445C107.936 17.7788 107.723 17.7397 107.591 17.7271V16.9949H114.736V17.7271C114.542 17.7397 114.311 17.7712 114.042 17.8211C113.772 17.8712 113.566 17.9181 113.422 17.9619C113.178 18.0434 113.017 18.1731 112.939 18.3515C112.86 18.5299 112.821 18.7194 112.821 18.9195V26.5429L118.811 19.1072C118.811 18.7819 118.765 18.5519 118.671 18.4172C118.577 18.2828 118.42 18.1654 118.201 18.0652C118.02 17.9776 117.799 17.9055 117.539 17.8493C117.28 17.7929 117.065 17.7523 116.896 17.7271V16.9949H124.013V17.7271C123.813 17.7397 123.588 17.7664 123.337 17.807C123.087 17.8478 122.861 17.8993 122.661 17.9619C122.423 18.0434 122.264 18.1716 122.182 18.3468C122.101 18.5222 122.06 18.7129 122.06 18.9195V28.3549C122.06 28.5802 122.101 28.7712 122.182 28.9275C122.264 29.0842 122.423 29.2157 122.661 29.322C122.811 29.3846 123.029 29.441 123.314 29.4909C123.598 29.541 123.832 29.5724 124.013 29.5848V30.3171Z" fill="#3572C1"/>
<path d="M134.135 20.8066C134.135 19.8052 133.933 19.0621 133.529 18.5768C133.126 18.0918 132.407 17.8493 131.374 17.8493H130.595V23.6983H130.989C132.016 23.6983 132.797 23.462 133.332 22.9895C133.868 22.517 134.135 21.7894 134.135 20.8066ZM137.797 20.3278C137.797 21.0789 137.642 21.7251 137.332 22.2665C137.022 22.8081 136.595 23.2476 136.05 23.5855C135.487 23.9362 134.844 24.1897 134.121 24.3461C133.398 24.5027 132.586 24.5808 131.684 24.5808H130.595V28.3267C130.595 28.5521 130.637 28.7478 130.722 28.9136C130.806 29.0795 130.968 29.2125 131.205 29.3125C131.33 29.3627 131.534 29.4158 131.816 29.4722C132.097 29.5285 132.335 29.566 132.529 29.5848V30.3171H125.309V29.5848C125.49 29.566 125.731 29.5396 126.032 29.505C126.332 29.4707 126.542 29.4284 126.661 29.3783C126.905 29.2782 127.066 29.1561 127.145 29.0121C127.223 28.8683 127.262 28.6679 127.262 28.4112V19.0134C127.262 18.7945 127.224 18.605 127.149 18.4455C127.074 18.2858 126.912 18.1529 126.661 18.0464C126.486 17.9713 126.253 17.9041 125.962 17.8446C125.671 17.7853 125.453 17.746 125.309 17.7272V16.9949H132.661C134.382 16.9949 135.668 17.2688 136.52 17.8164C137.371 18.3641 137.797 19.2012 137.797 20.3278Z" fill="#3572C1"/>
<path d="M79.2461 32.5996C78.4194 31.136 77.5946 29.6742 76.7696 28.2125C77.8749 29.7168 78.9818 31.2212 80.0887 32.7255C79.8067 32.683 79.5264 32.6403 79.2461 32.5996ZM79.7233 31.9503C79.6576 31.8474 79.6382 31.7055 79.6896 31.5813C79.7747 31.372 80 31.333 80.0249 31.3294C80.3017 31.2868 80.4861 31.5352 80.495 31.5477C80.6085 31.7073 80.6226 31.9202 80.5357 32.1064C81.0307 32.7255 81.5257 33.3428 82.0189 33.9602C81.7935 33.6001 81.6711 33.2789 81.6001 33.0555C81.4264 32.4967 81.421 32.0213 81.4157 31.5973C81.4121 31.2762 81.4317 31.0101 81.4493 30.8274C79.4927 29.2202 78.9996 28.6827 79.0686 28.5798C79.0775 28.5691 79.1219 28.5195 79.1875 28.4289C79.2728 28.3084 79.3153 28.2498 79.3206 28.1948C79.3347 28.0512 79.1893 27.8985 79.0368 27.8435C78.9286 27.8027 78.8328 27.817 78.7849 27.8258C78.6625 27.6591 78.5382 27.4905 78.4159 27.3238H78.1817C77.1635 25.972 76.147 24.6184 75.1304 23.2667C74.1139 23.2455 73.0975 23.2223 72.0792 23.1993C73.5002 25.0548 74.9211 26.9105 76.3421 28.7642C76.3208 28.8405 76.2996 28.915 76.2782 28.9913C76.4379 29.1634 76.5975 29.3355 76.7572 29.5057C76.7146 29.5413 76.5797 29.6619 76.6064 29.7824C76.6117 29.8109 76.6242 29.8305 76.7057 29.9209C76.8282 30.0556 76.8885 30.1249 76.9204 30.1355C77.0854 30.1923 77.3018 29.9474 77.3214 29.9244C77.8251 30.9019 78.3307 31.8775 78.8346 32.855C79.2868 32.8905 79.6576 32.9774 79.9237 33.0555C80.2076 33.1388 80.6422 33.272 81.1318 33.593C81.4582 33.8059 81.696 34.0294 81.8521 34.1961C81.3217 33.5025 80.7912 32.8106 80.259 32.117C80.0461 32.1827 79.8261 32.1099 79.7233 31.9503Z" fill="#EC1C26"/>
<path d="M83.0262 34.1548C94.3811 34.0124 109.523 33.8625 120.821 33.7686C125.331 33.7737 130.06 33.8573 134.564 34.0086C135.709 34.058 136.855 34.0919 138 34.1548V34.2369C136.855 34.2998 135.709 34.3338 134.564 34.3832C130.062 34.5345 125.33 34.618 120.821 34.6231C114.604 34.5828 103.091 34.4454 96.7695 34.4011L83.0262 34.2369V34.1548Z" fill="#EC1C26"/>
</svg>
